<svg xmlns="http://www.w3.org/2000/svg" width="16" height="16" viewBox="0 0 16 16" fill="none">
    <path
        d="M11.3335 14.5H4.66683C1.72683 14.5 0.833496 13.6067 0.833496 10.6667V5.33333C0.833496 2.39333 1.72683 1.5 4.66683 1.5H11.3335C14.2735 1.5 15.1668 2.39333 15.1668 5.33333V10.6667C15.1668 13.6067 14.2735 14.5 11.3335 14.5ZM4.66683 2.5C2.28016 2.5 1.8335 2.95333 1.8335 5.33333V10.6667C1.8335 13.0467 2.28016 13.5 4.66683 13.5H11.3335C13.7202 13.5 14.1668 13.0467 14.1668 10.6667V5.33333C14.1668 2.95333 13.7202 2.5 11.3335 2.5H4.66683Z"
        fill="#6B7785" />
    <path
        d="M12.6668 5.83334H9.3335C9.06016 5.83334 8.8335 5.60668 8.8335 5.33334C8.8335 5.06001 9.06016 4.83334 9.3335 4.83334H12.6668C12.9402 4.83334 13.1668 5.06001 13.1668 5.33334C13.1668 5.60668 12.9402 5.83334 12.6668 5.83334Z"
        fill="#6B7785" />
    <path
        d="M12.6667 8.5H10C9.72667 8.5 9.5 8.27333 9.5 8C9.5 7.72667 9.72667 7.5 10 7.5H12.6667C12.94 7.5 13.1667 7.72667 13.1667 8C13.1667 8.27333 12.94 8.5 12.6667 8.5Z"
        fill="#6B7785" />
    <path
        d="M12.6668 11.1667H11.3335C11.0602 11.1667 10.8335 10.94 10.8335 10.6667C10.8335 10.3933 11.0602 10.1667 11.3335 10.1667H12.6668C12.9402 10.1667 13.1668 10.3933 13.1668 10.6667C13.1668 10.94 12.9402 11.1667 12.6668 11.1667Z"
        fill="#6B7785" />
    <path
        d="M5.66663 8.02668C4.72663 8.02668 3.95996 7.26001 3.95996 6.32001C3.95996 5.38001 4.72663 4.61334 5.66663 4.61334C6.60663 4.61334 7.37329 5.38001 7.37329 6.32001C7.37329 7.26001 6.60663 8.02668 5.66663 8.02668ZM5.66663 5.61334C5.27996 5.61334 4.95996 5.93334 4.95996 6.32001C4.95996 6.70668 5.27996 7.02668 5.66663 7.02668C6.05329 7.02668 6.37329 6.70668 6.37329 6.32001C6.37329 5.93334 6.05329 5.61334 5.66663 5.61334Z"
        fill="#6B7785" />
    <path
        d="M7.99994 11.3867C7.7466 11.3867 7.5266 11.1933 7.49994 10.9333C7.4266 10.2133 6.8466 9.63334 6.11994 9.56667C5.81327 9.54001 5.5066 9.54001 5.19994 9.56667C4.47327 9.63334 3.89327 10.2067 3.81994 10.9333C3.79327 11.2067 3.5466 11.4133 3.27327 11.38C2.99994 11.3533 2.79994 11.1067 2.8266 10.8333C2.9466 9.63334 3.89994 8.68001 5.1066 8.57334C5.47327 8.54001 5.8466 8.54001 6.21327 8.57334C7.41327 8.68667 8.37327 9.64001 8.49327 10.8333C8.51994 11.1067 8.31994 11.3533 8.0466 11.38C8.03327 11.3867 8.01327 11.3867 7.99994 11.3867Z"
        fill="#6B7785" />
</svg>