<svg xmlns="http://www.w3.org/2000/svg" width="12" height="12" viewBox="0 0 12 12" fill="none">
    <path d="M11 5V7.5C11 10 10 11 7.5 11H4.5C2 11 1 10 1 7.5V4.5C1 2 2 1 4.5 1H7" stroke="white"
        stroke-width="1.5" stroke-linecap="round" stroke-linejoin="round" />
    <path d="M11 5H9C7.5 5 7 4.5 7 3V1L11 5Z" stroke="white" stroke-width="1.5"
        stroke-linecap="round" stroke-linejoin="round" />
    <path
        d="M3.30989 7.86499C3.14489 7.34999 3.33989 6.71499 3.87489 6.53999C4.15989 6.44999 4.50989 6.52499 4.70489 6.79999C4.88989 6.51499 5.25489 6.44999 5.53489 6.53999C6.07489 6.71499 6.26489 7.34999 6.10489 7.86499C5.84989 8.67999 4.95489 9.10499 4.70489 9.10499C4.45989 9.09999 3.57489 8.68499 3.30989 7.86499Z"
        stroke="white" stroke-width="1.5" stroke-linecap="round" stroke-linejoin="round" />
</svg>