<svg xmlns="http://www.w3.org/2000/svg" width="16" height="16" viewBox="0 0 16 16" fill="none">
    <path
        d="M8.00016 11.1667C5.1535 11.1667 2.8335 8.84668 2.8335 6.00001C2.8335 3.15334 5.1535 0.833344 8.00016 0.833344C10.8468 0.833344 13.1668 3.15334 13.1668 6.00001C13.1668 8.84668 10.8468 11.1667 8.00016 11.1667ZM8.00016 1.83334C5.70016 1.83334 3.8335 3.70001 3.8335 6.00001C3.8335 8.30001 5.70016 10.1667 8.00016 10.1667C10.3002 10.1667 12.1668 8.30001 12.1668 6.00001C12.1668 3.70001 10.3002 1.83334 8.00016 1.83334Z"
        fill="#6B7785" />
    <path
        d="M8 15.1667C7.72667 15.1667 7.5 14.94 7.5 14.6667V10.6667C7.5 10.3933 7.72667 10.1667 8 10.1667C8.27333 10.1667 8.5 10.3933 8.5 10.6667V14.6667C8.5 14.94 8.27333 15.1667 8 15.1667Z"
        fill="#6B7785" />
    <path
        d="M10 13.1667H6C5.72667 13.1667 5.5 12.94 5.5 12.6667C5.5 12.3933 5.72667 12.1667 6 12.1667H10C10.2733 12.1667 10.5 12.3933 10.5 12.6667C10.5 12.94 10.2733 13.1667 10 13.1667Z"
        fill="#6B7785" />
</svg>