<svg xmlns="http://www.w3.org/2000/svg" width="163" height="178" viewBox="0 0 163 178" fill="none">
    <g clip-path="url(#clip0_1486_26099)">
        <path fill-rule="evenodd" clip-rule="evenodd"
            d="M49.3068 82.179C51.7397 87.0601 54.4215 92.112 57.8563 96.3772L58.1666 96.7632V113.962C47.3526 120.435 30.6822 124.485 18.6832 129.071C13.4717 131.064 9.86014 135.562 7.42442 140.401C4.60478 146.001 2.32178 157.594 2.32178 163.883C2.32178 164.656 2.95033 165.278 3.72453 165.278C41.5507 165.278 59.3615 181.002 97.8488 175.314C110.84 173.395 123.46 169.326 136.624 167.154C143.255 166.058 152.516 165.155 159.194 165.279C160.07 165.295 160.709 164.632 160.676 163.831C160.396 156.901 158.708 146.627 155.573 140.4C153.137 135.562 149.524 131.063 144.314 129.07C132.325 124.488 115.631 120.43 104.829 113.962V96.6858L105.326 96.065C108.83 91.6416 111.504 86.4329 114.008 81.414C115.255 81.3893 116.171 81.4069 117.352 80.7404C123.988 77.0033 128.019 68.0806 128.385 60.593C128.561 57.0289 127.108 53.6314 123.229 53.0731L121.941 52.8882C122.388 45.6129 122.774 38.2688 123.571 31.0287C125.475 13.7614 96.8009 1.46021 81.5001 1.46021C74.8469 1.46021 67.4811 2.24841 61.1602 4.38942C56.631 5.92364 50.1334 9.06942 50.0768 14.6058L50.0655 15.7097L48.9844 15.9608C45.7575 16.711 43.8196 19.6662 42.3574 22.3894C40.9738 24.9678 39.0931 27.9947 39.4268 31.0294C40.225 38.2695 40.6103 45.6136 41.0565 52.8889L39.7584 53.0661C31.4055 54.2051 35.0008 66.7946 37.5588 71.7861C39.2988 75.1836 43.7701 81.3127 48.066 81.3971L48.925 81.414L49.3068 82.179Z"
            fill="#F7F8FA" />
        <path fill-rule="evenodd" clip-rule="evenodd"
            d="M106.42 119.704C106.452 123.05 106.326 126.127 105.966 129.081C105.394 133.791 104.237 138.19 102.2 142.845C101.577 144.264 99.9147 144.913 98.488 144.296C98.1358 144.143 97.8318 143.928 97.5822 143.669L96.5754 142.658C94.5526 140.621 92.452 138.509 90.3253 136.391C89.3008 138.461 88.5648 139.962 87.3635 142.384C89.8834 154.481 92.1289 160.577 92.6606 171.727C101.257 170.814 108.927 168.975 116.789 167.088C128.354 164.314 140.329 161.442 156.244 161.114C155.722 156.088 154.331 147.302 151.8 142.276C149.653 138.01 146.703 134.476 142.812 132.989C133.115 129.283 116.449 124.773 106.42 119.704ZM109.033 27.556C110.411 29.1886 111.613 30.8965 112.648 32.6698C116.52 42.8651 114.951 63.3099 113.119 69.0776C113.927 68.8688 117.668 68.3562 118.428 68.1284C118.969 65.6147 119.96 60.4454 121.099 56.7075C122.956 56.7258 124.314 58.0808 124.159 60.6303C123.956 63.9638 122.997 67.144 121.597 69.8764C119.031 74.8847 116.077 77.2367 111.051 78.0052C110.64 78.8047 109.72 80.559 109.255 81.4568C107.261 85.2924 104.814 89.9112 101.996 93.4655C97.583 99.035 89.0173 106.907 81.4662 106.907C73.9151 106.907 65.3494 99.035 60.9361 93.4655C58.1207 89.9112 55.6723 85.2924 53.6791 81.4568C53.2125 80.559 52.2927 78.8047 51.8812 78.0052C46.8549 77.2367 43.9009 74.8847 41.3351 69.8764C39.9359 67.144 38.9778 63.9638 38.7735 60.6303C38.6173 58.0512 40.0094 56.6949 41.9014 56.7075C43.0404 60.4454 44.0324 65.6147 44.5705 68.1291C45.3312 68.3562 49.0721 68.8695 49.8803 69.0783C46.6018 58.7628 46.8895 33.759 56.5101 26.7987C74.0904 38.9227 91.3653 26.5125 106.488 26.7987C107.43 26.8156 108.273 27.0842 109.033 27.556ZM39.5661 51.6739C34.8997 52.3102 32.92 56.3025 33.1335 60.6626C33.3449 64.939 34.5363 68.9855 36.2989 72.4252C38.4907 76.703 41.6129 80.1216 44.883 81.9652C45.8523 82.5115 46.9298 82.7822 48.0399 82.804C50.2974 87.3315 53.1574 92.7223 56.4967 96.9368L56.7533 97.2582V113.168C47.5174 118.698 29.3976 123.471 18.177 127.76C12.7929 129.818 8.88447 134.363 6.16169 139.772C3.27417 145.506 0.908447 157.444 0.908447 163.885C0.908447 165.432 2.1705 166.686 3.72526 166.686C20.4883 166.686 32.9108 169.666 44.8837 172.538C56.3553 175.29 67.4288 177.947 81.4987 177.947C95.57 177.947 106.642 175.29 118.115 172.538C130.063 169.672 142.46 166.699 159.17 166.687C160.805 166.747 162.154 165.404 162.089 163.775C161.839 157.664 160.268 146.583 156.837 139.771C154.114 134.363 150.206 129.817 144.822 127.76C133.602 123.471 115.48 118.696 106.244 113.167V97.178L106.437 96.9361C109.776 92.7216 112.638 87.3307 114.894 82.8033C116.004 82.7815 117.081 82.5108 118.051 81.9645C121.322 80.1209 124.443 76.703 126.635 72.4245C128.397 68.9848 129.59 64.9383 129.8 60.6619C130.013 56.3229 128.053 52.3468 123.433 51.6823C123.92 43.7602 124.192 38.3166 124.978 31.1827C126.976 13.0477 97.911 0.0539551 81.5001 0.0539551C65.1309 0.0539551 48.761 4.89989 48.6635 14.5918C45.0647 15.4285 42.8828 18.4287 41.111 21.7271C39.5329 24.6668 37.6451 27.7606 38.0219 31.1827C38.8081 38.3145 39.0797 43.756 39.5661 51.6739ZM62.4096 103.289C67.8452 108.282 74.7204 112.531 81.4676 112.531C88.241 112.531 95.1437 108.248 100.589 103.23V112.66C97.5356 115.14 94.5053 116.833 91.4983 117.919C88.1936 119.111 84.8571 119.589 81.5008 119.589C78.1453 119.589 74.8088 119.111 71.5027 117.919C68.4936 116.832 65.4653 115.139 62.4096 112.658V103.289ZM58.9296 23.3309C70.6953 31.445 82.2531 26.869 94.1927 24.1444C82.217 24.5761 70.2859 27.9167 58.9296 23.3309ZM72.6764 136.39C70.5482 138.508 68.449 140.621 66.4248 142.657L65.3975 143.691C64.3051 144.795 62.5199 144.81 61.4091 143.724C61.1263 143.446 60.9135 143.124 60.7728 142.779C58.7542 138.148 57.6053 133.769 57.0347 129.081C56.6755 126.127 56.5497 123.051 56.5801 119.705C46.5615 124.763 29.7419 129.336 20.1871 132.99C16.2956 134.476 13.3458 138.011 11.1986 142.276C8.66741 147.304 7.27668 156.089 6.75489 161.115C22.6702 161.443 34.6437 164.314 46.2094 167.089C54.0737 168.976 61.7435 170.816 70.341 171.728C70.8727 160.578 73.1168 154.482 75.6381 142.385C74.4369 139.962 73.7008 138.461 72.6764 136.39ZM100.354 128.421C100.695 125.624 100.81 122.694 100.775 119.495C98.3352 121.093 95.8825 122.303 93.4207 123.192C91.1327 124.018 88.8554 124.561 86.5851 124.874C90.6795 128.785 94.7258 132.822 98.5424 136.658C99.4325 133.944 100.01 131.249 100.354 128.421ZM64.46 136.657C68.2751 132.822 72.3214 128.784 76.4173 124.873C74.147 124.561 71.8682 124.017 69.5803 123.192C67.1198 122.303 64.6671 121.093 62.2257 119.495C62.1911 122.694 62.307 125.624 62.6471 128.421C62.9907 131.249 63.5677 133.944 64.46 136.657Z"
            fill="#C9CDD4" />
    </g>
    <defs>
        <clipPath id="clip0_1486_26099">
            <rect width="163" height="178" fill="white" />
        </clipPath>
    </defs>
</svg>