<svg xmlns="http://www.w3.org/2000/svg" width="16" height="16" viewBox="0 0 16 16" fill="none">
    <path
        d="M10.4335 14.2733C10.1469 14.2733 9.86019 14.2133 9.62686 14.1L6.12686 12.3467C5.92686 12.2467 5.53352 12.2533 5.34019 12.3667L3.76686 13.2667C3.08686 13.6533 2.38686 13.7067 1.86019 13.3933C1.32686 13.0867 1.02686 12.46 1.02686 11.6733V5.19335C1.02686 4.58668 1.42686 3.90001 1.95352 3.60001L4.84019 1.94668C5.32686 1.66668 6.06686 1.64668 6.56686 1.90001L10.0669 3.65335C10.2669 3.75335 10.6535 3.74001 10.8535 3.63335L12.4202 2.74001C13.1002 2.35335 13.8002 2.30001 14.3269 2.61335C14.8602 2.92001 15.1602 3.54668 15.1602 4.33335V10.82C15.1602 11.4267 14.7602 12.1133 14.2335 12.4133L11.3469 14.0667C11.0935 14.2 10.7602 14.2733 10.4335 14.2733ZM5.76019 11.28C6.04686 11.28 6.33352 11.34 6.56686 11.4533L10.0669 13.2067C10.2669 13.3067 10.6535 13.2933 10.8535 13.1867L13.7402 11.5333C13.9535 11.4133 14.1602 11.0533 14.1602 10.8133V4.32668C14.1602 3.90668 14.0402 3.59335 13.8202 3.47335C13.6069 3.35335 13.2735 3.40001 12.9135 3.60668L11.3469 4.50001C10.8602 4.78001 10.1202 4.80001 9.62019 4.54668L6.12019 2.79335C5.92019 2.69335 5.53352 2.70668 5.33352 2.81335L2.44686 4.46668C2.23352 4.58668 2.02686 4.94668 2.02686 5.19335V11.68C2.02686 12.1 2.14686 12.4133 2.36019 12.5333C2.57352 12.66 2.90686 12.6067 3.27352 12.4L4.84019 11.5067C5.10019 11.3533 5.43352 11.28 5.76019 11.28Z"
        fill="#6B7785" />
    <path
        d="M5.70654 11.8333C5.43321 11.8333 5.20654 11.6067 5.20654 11.3333V2.66666C5.20654 2.39332 5.43321 2.16666 5.70654 2.16666C5.97988 2.16666 6.20654 2.39332 6.20654 2.66666V11.3333C6.20654 11.6067 5.97988 11.8333 5.70654 11.8333Z"
        fill="#6B7785" />
    <path
        d="M10.4868 13.8333C10.2135 13.8333 9.98682 13.6067 9.98682 13.3333V4.41333C9.98682 4.14 10.2135 3.91333 10.4868 3.91333C10.7601 3.91333 10.9868 4.14 10.9868 4.41333V13.3333C10.9868 13.6067 10.7601 13.8333 10.4868 13.8333Z"
        fill="#6B7785" />
</svg>