<svg xmlns="http://www.w3.org/2000/svg" width="16" height="16" viewBox="0 0 16 16" fill="none">
    <path
        d="M12.0934 14.4133C11.5067 14.5867 10.8134 14.6667 10.0001 14.6667H6.00007C5.18674 14.6667 4.49341 14.5867 3.90674 14.4133C4.0534 12.68 5.8334 11.3133 8.00007 11.3133C10.1667 11.3133 11.9467 12.68 12.0934 14.4133Z"
        stroke="white" stroke-width="1.5" stroke-linecap="round" stroke-linejoin="round" />
    <path
        d="M10.0002 1.33334H6.00016C2.66683 1.33334 1.3335 2.66668 1.3335 6.00001V10C1.3335 12.52 2.0935 13.9 3.90683 14.4133C4.0535 12.68 5.8335 11.3133 8.00016 11.3133C10.1668 11.3133 11.9468 12.68 12.0935 14.4133C13.9068 13.9 14.6668 12.52 14.6668 10V6.00001C14.6668 2.66668 13.3335 1.33334 10.0002 1.33334ZM8.00016 9.44667C6.68016 9.44667 5.6135 8.37336 5.6135 7.05336C5.6135 5.73336 6.68016 4.66668 8.00016 4.66668C9.32016 4.66668 10.3868 5.73336 10.3868 7.05336C10.3868 8.37336 9.32016 9.44667 8.00016 9.44667Z"
        stroke="white" stroke-width="1.5" stroke-linecap="round" stroke-linejoin="round" />
    <path
        d="M10.3866 7.05333C10.3866 8.37333 9.31995 9.44665 7.99995 9.44665C6.67995 9.44665 5.61328 8.37333 5.61328 7.05333C5.61328 5.73333 6.67995 4.66666 7.99995 4.66666C9.31995 4.66666 10.3866 5.73333 10.3866 7.05333Z"
        stroke="white" stroke-width="1.5" stroke-linecap="round" stroke-linejoin="round" />
</svg>