<svg xmlns="http://www.w3.org/2000/svg" width="16" height="16" viewBox="0 0 16 16" fill="none">
    <path
        d="M9.99984 15.1667H5.99984C3.05984 15.1667 2.1665 14.2733 2.1665 11.3333V4.66668C2.1665 1.72668 3.05984 0.833344 5.99984 0.833344H9.99984C12.9398 0.833344 13.8332 1.72668 13.8332 4.66668V11.3333C13.8332 14.2733 12.9398 15.1667 9.99984 15.1667ZM5.99984 1.83334C3.61317 1.83334 3.1665 2.28668 3.1665 4.66668V11.3333C3.1665 13.7133 3.61317 14.1667 5.99984 14.1667H9.99984C12.3865 14.1667 12.8332 13.7133 12.8332 11.3333V4.66668C12.8332 2.28668 12.3865 1.83334 9.99984 1.83334H5.99984Z"
        fill="#6B7785" />
    <path
        d="M9.33317 4.16666H6.6665C6.39317 4.16666 6.1665 3.93999 6.1665 3.66666C6.1665 3.39332 6.39317 3.16666 6.6665 3.16666H9.33317C9.6065 3.16666 9.83317 3.39332 9.83317 3.66666C9.83317 3.93999 9.6065 4.16666 9.33317 4.16666Z"
        fill="#6B7785" />
    <path
        d="M8.00013 13.24C7.15346 13.24 6.4668 12.5533 6.4668 11.7067C6.4668 10.86 7.15346 10.1733 8.00013 10.1733C8.8468 10.1733 9.53346 10.86 9.53346 11.7067C9.53346 12.5533 8.8468 13.24 8.00013 13.24ZM8.00013 11.1667C7.7068 11.1667 7.4668 11.4067 7.4668 11.7C7.4668 11.9933 7.7068 12.2333 8.00013 12.2333C8.29346 12.2333 8.53346 11.9933 8.53346 11.7C8.53346 11.4067 8.29346 11.1667 8.00013 11.1667Z"
        fill="#6B7785" />
</svg>