<svg xmlns="http://www.w3.org/2000/svg" width="45" height="44" viewBox="0 0 45 44" fill="none">
  <path d="M36.2683 10.725L25.3783 4.43669C23.5999 3.41002 21.3999 3.41002 19.6033 4.43669L8.7316 10.725C6.95327 11.7517 5.85327 13.6584 5.85327 15.73V28.27C5.85327 30.3234 6.95327 32.23 8.7316 33.275L19.6216 39.5634C21.3999 40.59 23.5999 40.59 25.3966 39.5634L36.2866 33.275C38.0649 32.2484 39.1649 30.3417 39.1649 28.27V15.73C39.1466 13.6584 38.0466 11.77 36.2683 10.725ZM21.1249 14.2084C21.1249 13.4567 21.7483 12.8334 22.4999 12.8334C23.2516 12.8334 23.8749 13.4567 23.8749 14.2084V23.8334C23.8749 24.585 23.2516 25.2084 22.4999 25.2084C21.7483 25.2084 21.1249 24.585 21.1249 23.8334V14.2084ZM24.1866 30.4884C24.0949 30.7084 23.9666 30.91 23.8016 31.0934C23.4533 31.4417 22.9949 31.625 22.4999 31.625C22.2616 31.625 22.0233 31.57 21.8033 31.4784C21.5649 31.3867 21.3816 31.2584 21.1983 31.0934C21.0333 30.91 20.9049 30.7084 20.7949 30.4884C20.7033 30.2684 20.6666 30.03 20.6666 29.7917C20.6666 29.315 20.8499 28.8384 21.1983 28.49C21.3816 28.325 21.5649 28.1967 21.8033 28.105C22.4816 27.8117 23.2883 27.9767 23.8016 28.49C23.9666 28.6734 24.0949 28.8567 24.1866 29.095C24.2783 29.315 24.3333 29.5534 24.3333 29.7917C24.3333 30.03 24.2783 30.2684 24.1866 30.4884Z" fill="#F09833"/>
</svg>