<svg xmlns="http://www.w3.org/2000/svg" width="143" height="177" viewBox="0 0 143 177" fill="none">
    <g clip-path="url(#clip0_1486_25719)">
        <path fill-rule="evenodd" clip-rule="evenodd"
            d="M89.7882 111.816V104.958L91.0549 104.832C96.5796 104.275 101.99 103.301 107.364 101.904C112.512 100.565 117.515 98.8335 122.536 97.0921C122.55 97.0864 122.573 97.0745 122.585 97.0604C120.232 92.4353 119.072 86.4928 118.299 81.3923C117.295 74.7746 116.76 68.0395 116.2 61.3712C116.094 60.1045 115.986 58.8378 115.878 57.5718C115.397 51.9943 114.879 46.4014 114.067 40.8613C113.356 36.0026 112.41 31.0048 110.833 26.3459C108.695 20.018 105.274 12.8468 99.241 9.37374C94.8965 6.87339 90.0794 6.74046 85.2292 7.47685L84.0884 7.65058L83.6946 6.56534C83.0651 4.82459 81.0381 3.78506 79.4042 3.21325C76.5923 2.23069 73.229 1.94092 70.2672 1.94092C65.5113 1.94092 60.6055 2.68434 56.0219 3.93346C50.4993 5.43859 45.4332 8.22872 41.2589 12.1512C37.0938 16.0646 33.9984 20.9351 32.1691 26.3466C30.5943 31.0055 29.6483 36.0026 28.9358 40.8613C28.1242 46.4007 27.6058 51.9943 27.1255 57.5711C27.0164 58.8378 26.9095 60.1038 26.8033 61.3705C26.2421 68.0395 25.7068 74.7746 24.7032 81.393C23.9288 86.4992 22.7669 92.4473 20.4121 97.0724C25.4417 98.8553 30.4719 100.561 35.6393 101.905C41.01 103.302 46.432 104.26 51.9517 104.828L53.2142 104.959V111.816L53.6925 112.932L52.2788 113.433C46.3307 115.542 40.5922 118.416 34.9416 121.212C30.1814 123.568 25.3889 125.957 20.4459 127.906C17.8344 128.936 15.5254 130.438 13.5364 132.416C11.5769 134.365 10.0394 136.663 8.82191 139.137C7.13883 142.553 5.78632 146.105 4.69967 149.753C3.47025 153.879 2.57983 158.108 1.8983 162.357C1.75904 163.225 2.44971 163.999 3.32536 163.971H3.34998H3.37459C10.0513 164 16.6085 164.617 23.1706 165.841C28.6496 166.863 33.9865 168.288 39.3578 169.753C40.6175 170.097 41.8765 170.441 43.1375 170.777C47.532 171.95 51.9327 173.028 56.4207 173.786C61.4221 174.631 66.4284 175.061 71.5016 175.061C76.5747 175.061 81.581 174.632 86.5824 173.786C91.0711 173.028 95.4719 171.95 99.8663 170.777C101.127 170.44 102.387 170.097 103.645 169.753C109.029 168.285 114.377 166.856 119.868 165.833C126.449 164.606 133.024 163.992 139.72 163.971C140.492 163.968 141.121 163.349 141.121 162.575C141.121 162.503 141.117 162.43 141.106 162.359C140.423 158.11 139.534 153.879 138.305 149.754C137.218 146.105 135.865 142.555 134.183 139.137C132.965 136.664 131.428 134.366 129.468 132.416C127.478 130.438 125.171 128.937 122.559 127.907C117.616 125.958 112.822 123.568 108.062 121.212C102.412 118.416 96.6739 115.543 90.7258 113.434L89.3121 112.933L89.7882 111.816Z"
            fill="#F7F8FA" />
        <path fill-rule="evenodd" clip-rule="evenodd"
            d="M36.9023 58.5901C36.5746 58.659 36.2539 58.7906 35.9381 58.9981C34.6425 59.8491 35.4725 64.8006 36.166 67.571C37.529 73.0183 38.5495 75.8591 45.7819 75.5932C47.6408 80.1269 49.8359 84.6388 52.2976 88.7462C57.8223 97.9648 64.5659 104.988 71.5021 104.988C78.4426 104.988 85.1862 97.9662 90.7109 88.7484C93.1732 84.6402 95.3676 80.1283 97.2258 75.5939C104.454 75.8577 105.475 73.0176 106.838 67.5717C107.53 64.8013 108.36 59.8498 107.065 58.9988C106.53 58.6471 105.98 58.5114 105.408 58.5374C102.634 61.4161 99.5933 63.5754 97.8638 67.514C98.3948 63.8961 98.8386 60.3365 99.0306 56.9063C92.2216 51.1749 94.5194 36.9246 85.9964 29.8709C85.1665 42.2988 55.7355 50.3428 49.0088 57.412C49.9963 50.6024 64.0004 44.9884 73.0051 39.0628C61.0604 44.8934 43.0544 48.37 43.7894 58.6858C44.2001 61.4893 44.6798 64.3708 45.1398 67.5133C43.1437 63.7547 39.7874 61.7277 36.9023 58.5901ZM57.4341 104.276V112.102C57.4341 113.298 57.0655 114.418 56.4093 115.346C55.7517 116.276 54.8155 117.001 53.6818 117.402C51.0457 118.337 48.3639 119.47 45.6595 120.709C39.6777 124.345 35.8628 129.333 32.5684 135.38L46.2482 133.942L41.9579 143.82L71.5014 164.721L101.044 143.82L96.7539 133.942L110.434 135.38C107.139 129.333 103.324 124.345 97.3426 120.709C94.6376 119.47 91.9572 118.337 89.3211 117.402C88.1866 117.001 87.2505 116.276 86.5928 115.346C85.9366 114.418 85.5681 113.298 85.5681 112.102V104.283C81.2545 108.205 76.519 110.616 71.5021 110.616C66.486 110.615 61.749 108.202 57.4341 104.276ZM91.1948 106.231V112.102C91.1948 112.105 91.1948 112.106 91.1934 112.107C96.9811 114.16 102.834 117.055 108.685 119.951C113.521 122.344 118.358 124.739 123.073 126.597C125.963 127.736 128.4 129.37 130.458 131.417C132.48 133.428 134.116 135.819 135.443 138.514C137.097 141.873 138.488 145.445 139.652 149.351C140.8 153.205 141.736 157.428 142.494 162.133H142.492C142.514 162.276 142.527 162.423 142.527 162.573C142.527 164.121 141.271 165.375 139.725 165.375C124.843 165.429 114.244 168.32 104.016 171.109C94.0236 173.833 84.3703 176.466 71.5014 176.466C58.6325 176.466 48.98 173.833 38.9877 171.109C28.7795 168.325 18.2021 165.441 3.36811 165.376C1.61752 165.43 0.231949 163.879 0.509062 162.133C1.26655 157.429 2.20269 153.206 3.35123 149.351C4.51455 145.445 5.90574 141.873 7.55928 138.514C8.88717 135.819 10.5224 133.429 12.5438 131.417C14.6025 129.371 17.0395 127.736 19.9288 126.597C24.6432 124.738 29.4801 122.344 34.3176 119.951C40.1679 117.055 46.0218 114.16 51.8088 112.107C51.8088 112.106 51.8081 112.105 51.8081 112.102V106.228C45.6694 105.595 40.3009 104.57 35.2854 103.266C29.9112 101.868 24.9815 100.183 19.9429 98.3981C19.1404 98.1139 18.7732 97.1898 19.1572 96.4365C23.0861 88.7209 24.2283 75.1993 25.4021 61.2522C26.4677 48.5901 27.5628 35.5813 30.8368 25.8957C32.7787 20.1516 36.0443 15.1199 40.2959 11.1257C44.542 7.13637 49.7733 4.17885 55.6518 2.57596C60.7531 1.18547 65.8368 0.53418 70.2671 0.53418C74.0165 0.53418 77.3419 1.0019 79.8683 1.88528C82.51 2.80876 84.3422 4.22316 85.0167 6.08559C90.4 5.26832 95.4197 5.55246 99.9407 8.15409C104.789 10.9442 108.942 16.3599 112.165 25.895C115.44 35.5806 116.535 48.5894 117.601 61.2522C118.775 75.1993 119.913 88.7216 123.846 96.4358C124.246 97.2207 123.822 98.1343 122.997 98.4199C117.969 100.163 113.069 101.873 107.717 103.265C102.702 104.57 97.3349 105.614 91.1948 106.231ZM38.6248 51.9049C40.8473 43.057 51.9966 37.9178 62.4347 32.8193C72.8722 27.7208 82.6007 22.6632 81.9825 13.977C85.7411 24.0811 77.4973 29.5164 67.0163 34.4489C56.5352 39.3821 43.8168 43.8124 38.6248 51.9049ZM106.476 89.5677C106.281 87.3347 101.517 78.5359 100.25 78.6471C98.9835 78.7582 95.0533 87.948 95.2488 90.1803C95.445 92.4141 100.21 92.7714 101.476 92.6596C102.742 92.5492 106.671 91.8008 106.476 89.5677ZM36.5268 89.5677C36.7223 87.3347 41.4867 78.5359 42.7527 78.6471C44.0187 78.7582 47.9489 87.948 47.7534 90.1803C47.5578 92.4141 42.7928 92.7714 41.5261 92.6596C40.2601 92.5492 36.3312 91.8008 36.5268 89.5677ZM83.2288 124.883C84.2979 123.762 86.0731 123.716 87.1963 124.784C88.3188 125.852 88.3638 127.629 87.2955 128.75C83.1374 133.108 77.4798 135.256 71.5014 135.256C65.5238 135.256 59.8669 133.108 55.7088 128.75C54.639 127.629 54.6854 125.852 55.8079 124.784C56.9312 123.715 58.7057 123.762 59.7755 124.883C62.9067 128.164 67.0149 129.63 71.5021 129.63C75.9894 129.63 80.0969 128.165 83.2288 124.883ZM51.8158 112.115L51.8165 112.113V112.112C51.8151 112.117 51.813 112.12 51.8158 112.115ZM91.1849 112.114L91.1863 112.112C91.1849 112.112 91.1849 112.112 91.1849 112.114ZM91.1863 112.115C91.1891 112.12 91.1877 112.117 91.1863 112.112L91.1849 112.114L91.1863 112.115Z"
            fill="#C9CDD4" />
    </g>
    <defs>
        <clipPath id="clip0_1486_25719">
            <rect width="143" height="177" fill="white" />
        </clipPath>
    </defs>
</svg>