<svg xmlns="http://www.w3.org/2000/svg" width="44" height="80" viewBox="0 0 44 80" fill="none">
    <path
        d="M35.3181 25.7823C35.3394 30.0642 33.4334 33.983 29.8562 36.5458C26.2791 39.1032 18.5215 40.5394 13.2465 36.2842C8.08371 32.1144 7.90218 26.4977 9.66406 21.2922C9.62669 21.6552 9.61067 22.029 9.61067 22.4027C9.61067 29.2367 15.1526 34.7786 21.9865 34.7786C28.8258 34.7786 34.3677 29.2367 34.3677 22.4027C34.3677 21.9008 34.3357 21.399 34.2769 20.9131C34.907 22.4401 35.3074 24.0418 35.3181 25.7823Z"
        fill="white" />
    <path
        d="M34.3672 22.4025C34.3672 29.2365 28.8252 34.7784 21.986 34.7784C15.152 34.7784 9.61011 29.2365 9.61011 22.4025C9.61011 22.0288 9.62612 21.6551 9.6635 21.292C9.69553 21.1746 9.73291 21.0624 9.77562 20.9503C9.77562 20.9503 9.52468 25.4778 13.9454 27.8804C11.9433 24.2872 10.7954 23.2621 12.7014 17.4212C13.4382 15.2376 15.7126 12.8403 17.5706 10.8382C17.8856 10.4965 18.1899 10.1708 18.4729 9.85583C20.4216 7.68285 22.6907 3.51308 20.475 0C21.8685 0.453817 24.7409 3.29952 24.5273 7.19166C24.4739 8.20608 24.255 9.20981 23.94 10.1762C23.0484 12.9204 21.3987 15.3497 20.6085 16.7325C19.5407 18.6012 19.5834 21.9274 22.0821 21.8046C24.5807 21.6818 24.3725 17.5067 23.4862 16.1986C24.2657 16.2199 26.8712 18.3235 27.01 21.89C27.1488 24.5809 26.3212 25.4778 26.097 26.1719C26.412 26.1399 28.4569 24.5542 28.884 20.0107C29.0762 16.2787 27.1702 16.2787 27.7147 11.9701C27.7361 11.7992 27.7628 11.6337 27.8055 11.4736C28.2273 9.74371 29.7008 8.60116 29.8023 8.52642C29.7329 8.63854 28.7505 10.2189 29.5887 12.6321C29.7863 13.2141 30.0906 13.8387 30.5337 14.5008C31.9486 16.6097 33.3581 18.6759 34.271 20.9076L34.2764 20.9129C34.3351 21.3988 34.3672 21.9007 34.3672 22.4025Z"
        fill="white" />
    <path
        d="M6.68536 37.1436C3.49262 37.1436 0.903198 39.733 0.903198 42.9204C0.903198 45.6807 2.83592 47.9871 5.42001 48.5637C5.82578 48.6545 6.2529 48.7025 6.68536 48.7025C7.11782 48.7025 7.54494 48.6545 7.95071 48.5637C10.5348 47.9871 12.4675 45.6807 12.4675 42.9204C12.4675 39.733 9.87809 37.1436 6.68536 37.1436ZM6.68536 46.7431C4.57645 46.7431 2.86262 45.0346 2.86262 42.9204C2.86262 40.8115 4.57645 39.103 6.68536 39.103C8.79427 39.103 10.5081 40.8115 10.5081 42.9204C10.5081 45.0346 8.79427 46.7431 6.68536 46.7431Z"
        fill="white" />
    <path
        d="M37.3147 37.1436C34.122 37.1436 31.5325 39.733 31.5325 42.9204C31.5325 45.6807 33.4653 47.9871 36.0493 48.5637C36.4551 48.6545 36.8822 48.7025 37.3147 48.7025C37.7472 48.7025 38.1743 48.6545 38.58 48.5637C41.1641 47.9871 43.0969 45.6807 43.0969 42.9204C43.0969 39.733 40.5074 37.1436 37.3147 37.1436ZM37.3147 46.7431C35.2058 46.7431 33.492 45.0346 33.492 42.9204C33.492 40.8115 35.2058 39.103 37.3147 39.103C39.4236 39.103 41.1374 40.8115 41.1374 42.9204C41.1374 45.0346 39.4236 46.7431 37.3147 46.7431Z"
        fill="white" />
    <path
        d="M21.9973 41.9807C18.8099 41.9807 16.2205 44.5701 16.2205 47.7629C16.2205 50.5178 18.1532 52.8243 20.7319 53.4009C21.1377 53.4916 21.5595 53.5397 21.9973 53.5397C22.4297 53.5397 22.8569 53.4916 23.2626 53.4009C25.8467 52.8243 27.7794 50.5178 27.7794 47.7629C27.7794 44.5701 25.19 41.9807 21.9973 41.9807ZM21.9973 51.5803C19.8884 51.5803 18.1799 49.8718 18.1799 47.7629C18.1799 45.6486 19.8884 43.9401 21.9973 43.9401C24.1115 43.9401 25.82 45.6486 25.82 47.7629C25.82 49.8718 24.1115 51.5803 21.9973 51.5803Z"
        fill="white" />
    <path
        d="M17.8442 63.4647V76.9725L15.3135 75.1252V64.7568L7.95098 59.3911L5.42029 57.5491V48.5635C5.82605 48.6543 6.25318 48.7024 6.68564 48.7024C7.1181 48.7024 7.54522 48.6543 7.95098 48.5635V56.2571L15.3135 61.6228L17.8442 63.4647Z"
        fill="white" />
    <path
        d="M23.2631 53.4011V79.0764L21.9977 80.0001L20.7324 79.0764V53.4011C21.1381 53.4918 21.5599 53.5399 21.9977 53.5399C22.4302 53.5399 22.8573 53.4918 23.2631 53.4011Z"
        fill="white" />
    <path
        d="M38.5802 48.5635V57.5545L36.0495 59.3964L28.6817 64.7621V75.1252L26.151 76.9725V63.4754L28.6817 61.6281L36.0495 56.2624V48.5635C36.4553 48.6543 36.8824 48.7024 37.3149 48.7024C37.7474 48.7024 38.1745 48.6543 38.5802 48.5635Z"
        fill="white" />
</svg>