<svg xmlns="http://www.w3.org/2000/svg" width="36" height="39" viewBox="0 0 36 39" fill="none">
    <path
        d="M0.862 11.6467V27.3571C0.861555 28.0217 1.03389 28.6746 1.36159 29.2499C1.6893 29.8252 2.16077 30.3025 2.72839 30.6337L16.1336 38.4951C16.7005 38.8259 17.343 39 17.9969 39C18.6509 39 19.2934 38.8259 19.8603 38.4951L33.2716 30.6337C33.8392 30.3025 34.3107 29.8252 34.6384 29.2499C34.9661 28.6746 35.1384 28.0217 35.138 27.3571V11.6467C35.1382 10.9814 34.9659 10.3277 34.6383 9.7514C34.3106 9.17513 33.8392 8.69659 33.2716 8.36392L19.8603 0.508719C19.2942 0.175514 18.6514 3.05176e-05 17.9969 3.05176e-05C17.3425 3.05176e-05 16.6997 0.175514 16.1336 0.508719L2.72839 8.36392C2.1607 8.69659 1.68934 9.17513 1.3617 9.7514C1.03407 10.3277 0.861722 10.9814 0.862 11.6467Z"
        fill="#2D8CFF" />
    <path
        d="M18.0002 13.2388V33.4722C17.7521 33.4739 17.5075 33.4124 17.2889 33.2933L15.0881 32.0036H15.082C14.8655 31.862 14.6874 31.6675 14.5642 31.4378C14.4409 31.2082 14.3765 30.9508 14.3768 30.6893V15.1208L17.2646 13.43C17.4896 13.3034 17.7429 13.2375 18.0002 13.2388Z"
        fill="white" />
    <path
        d="M18.0002 5.53784V11.4061C17.7575 11.4056 17.5181 11.4626 17.301 11.5727L14.3768 13.2881V8.26526C14.3861 8.01561 14.4538 7.7718 14.5743 7.55397C14.6948 7.33615 14.8647 7.15058 15.0699 7.01262L17.3071 5.70445C17.5226 5.59591 17.7597 5.53892 18.0002 5.53784Z"
        fill="white" />
    <path
        d="M21.6232 15.1208V30.7695C21.6105 31.0157 21.5405 31.2553 21.419 31.4687C21.2975 31.6822 21.1279 31.8633 20.9241 31.9975L18.7112 33.2933C18.4926 33.4124 18.248 33.4739 17.9999 33.4722V13.2388C18.2434 13.2372 18.4835 13.2966 18.699 13.4115L21.6232 15.1208Z"
        fill="white" />
    <path
        d="M21.6232 8.32079V13.2881L18.7112 11.5789C18.491 11.4648 18.2471 11.4055 17.9999 11.4061V5.53784C18.2404 5.53892 18.4775 5.59591 18.6929 5.70445L20.9059 7.00028C21.1256 7.14098 21.3066 7.33588 21.432 7.56679C21.5575 7.79771 21.6233 8.05711 21.6232 8.32079Z"
        fill="white" />
</svg>