<?xml version="1.0" encoding="utf-8"?>
<!-- Generator: Adobe Illustrator 25.0.1, SVG Export Plug-In . SVG Version: 6.00 Build 0)  -->
<svg version="1.1" id="Layer_1" xmlns="http://www.w3.org/2000/svg" xmlns:xlink="http://www.w3.org/1999/xlink" x="0px" y="0px"
	 viewBox="0 0 1772.25 2000" style="enable-background:new 0 0 1772.25 2000;" xml:space="preserve">
<style type="text/css">
	.st0{fill:#2D8CFF;}
	.st1{fill:#CCCCCC;}
	.st2{fill:#F2F2F2;}
	.st3{fill:#FFFFFF;}
	.st4{fill:#5082C3;}
	.st5{fill:none;stroke:#231F20;stroke-width:1.5;stroke-miterlimit:10;}
	.st6{display:none;fill:none;stroke:#231F20;stroke-width:1.5;stroke-miterlimit:10;}
	.st7{fill:none;stroke:#000000;stroke-width:1.5;stroke-miterlimit:10;}
	.st8{fill:#D4145A;}
</style>
<g>
	<path class="st3" d="M1715.74,485.62L916.79,24.34c-18.97-10.95-42.35-10.95-61.32,0L56.52,485.62
		c-18.98,10.95-30.66,31.19-30.66,53.1v922.55c0,21.91,11.68,42.15,30.66,53.11l798.95,461.27c18.97,10.95,42.35,10.95,61.32,0
		l798.95-461.27c18.97-10.96,30.66-31.2,30.66-53.11V538.72C1746.4,516.81,1734.71,496.57,1715.74,485.62z M1068.04,1557.21
		c-1.3,25.53-14.97,47.8-35.13,60.91l-111.04,64.06c-10.68,5.57-22.84,8.73-35.73,8.73c-12.9,0-25.06-3.16-35.74-8.73l-110.45-63.73
		c-0.08-0.06-0.16-0.11-0.25-0.15c-21.35-13.79-35.48-37.79-35.48-65.08V783.39l145.13-83.73l0.02-0.02
		c10.93-5.92,23.46-9.3,36.77-9.31h0.09c12.63,0,24.54,3.01,35.06,8.39c0.05,0.01,146.75,84.66,146.75,84.66V1557.21z
		 M1068.04,692.64l-146.2-84.35c-10.68-5.58-22.82-8.73-35.7-8.73c-0.02,0-0.02,0-0.03,0c-12.65,0-24.57,3.03-35.11,8.4
		c-0.03,0.01-146.78,84.69-146.78,84.69V444.13c0.97-25.82,14.59-48.39,34.85-61.71l112.43-64.86c10.43-5.23,22.2-8.16,34.64-8.16
		c12.48,0,24.28,2.95,34.73,8.23c0,0,110.98,64.03,111.17,64.16c21.65,13.71,36,37.87,36,65.37V692.64z"/>
	<g>
		<path class="st4" d="M1068.04,783.38v773.83c-1.3,25.53-14.97,47.8-35.13,60.91l-111.04,64.06c-10.68,5.57-22.84,8.73-35.73,8.73
			c-12.9,0-25.06-3.16-35.74-8.73l-110.45-63.73c-0.08-0.06-0.16-0.11-0.25-0.15c-21.35-13.79-35.48-37.79-35.48-65.08V783.39
			l145.13-83.73l0.02-0.02c10.93-5.92,23.46-9.3,36.77-9.31h0.09c12.63,0,24.54,3.01,35.06,8.39
			C921.34,698.73,1068.04,783.38,1068.04,783.38z"/>
		<path class="st4" d="M1068.04,447.16v245.48l-146.2-84.35c-10.68-5.58-22.82-8.73-35.7-8.73c-0.02,0-0.02,0-0.03,0
			c-12.65,0-24.57,3.03-35.11,8.4c-0.03,0.01-146.78,84.69-146.78,84.69V444.13c0.97-25.82,14.59-48.39,34.85-61.71l112.43-64.86
			c10.43-5.23,22.2-8.16,34.64-8.16c12.48,0,24.28,2.95,34.73,8.23c0,0,110.98,64.03,111.17,64.16
			C1053.69,395.5,1068.04,419.66,1068.04,447.16z"/>
	</g>
</g>
</svg>
