<svg id="Layer_1" data-name="Layer 1" xmlns="http://www.w3.org/2000/svg" viewBox="0 0 1780.7 651"><defs><style>.cls-1{fill:#2d8cff;}.cls-2{fill:#ccc;}.cls-3{fill:#f2f2f2;}</style></defs><g id="Line"><path class="cls-1" d="M671.9,409.2h-63V222.4h63Zm62.4-68.9H667.6V288.5h66.7Zm-4.2-117.9h63V409.2h-63Z"/><path class="cls-1" d="M898.7,411.8c-16.5,0-31.2-3.2-43.9-9.7a75.7,75.7,0,0,1-30-26.8c-7.3-11.4-10.9-24.5-10.9-39.3s3.6-27.8,10.9-39.2a74.8,74.8,0,0,1,30-26.7c12.7-6.4,27.4-9.6,43.9-9.6s31.3,3.2,44.1,9.6a73.5,73.5,0,0,1,30,26.7c7.2,11.4,10.8,24.5,10.8,39.2s-3.6,27.9-10.8,39.3-17.2,20.3-30,26.8S915.3,411.8,898.7,411.8Zm0-46.9a21.9,21.9,0,0,0,20.6-13,36,36,0,0,0,3.2-15.9c0-6.4-1.1-11.7-3.2-15.8a22.8,22.8,0,0,0-8.6-9.5,22,22,0,0,0-12-3.2,22,22,0,0,0-20.5,12.7c-2.2,4.1-3.2,9.4-3.2,15.8s1,11.6,3.2,15.9a22.9,22.9,0,0,0,8.5,9.8A23.4,23.4,0,0,0,898.7,364.9Z"/><path class="cls-1" d="M1059.6,411.8a168.6,168.6,0,0,1-36.8-4c-12.1-2.6-21.9-6.1-29.3-10.4l16.5-39.7a97,97,0,0,0,24.2,9.6,109.4,109.4,0,0,0,26.8,3.4c7.3,0,12.2-.6,14.8-1.8s3.9-3,3.9-5.1-1.6-3.7-4.6-4.7a57.6,57.6,0,0,0-12-2.2l-16.4-2.1a143.3,143.3,0,0,1-18-3.6,57.6,57.6,0,0,1-16.6-7.2,37.3,37.3,0,0,1-12-12.9q-4.5-8.1-4.5-20.7a41,41,0,0,1,8.4-25.1c5.6-7.4,14-13.4,25.1-18s24.8-6.8,41.2-6.8a181.4,181.4,0,0,1,32,2.9c10.7,2,19.9,5,27.5,9.1l-16.5,39.8a79.9,79.9,0,0,0-22-8.4,100.1,100.1,0,0,0-20.2-2.3q-11.4,0-15.6,2.1c-2.8,1.5-4.1,3.1-4.1,4.8s1.5,3.8,4.5,4.9a62.9,62.9,0,0,0,12,2.4c5,.5,10.5,1.2,16.4,2a126.5,126.5,0,0,1,17.9,3.7,60.8,60.8,0,0,1,16.4,7.3,35,35,0,0,1,12,13c3.1,5.4,4.6,12.3,4.6,20.7s-2.8,16.8-8.3,24.4-13.9,13.6-25.1,18.1S1076.5,411.8,1059.6,411.8Z"/><path class="cls-1" d="M1153.3,460.9V263.2h57.4v19.7l.3,53.4,2.6,53.4v71.2Zm97.4-49.1c-12.6,0-23.1-2.7-31.3-8.1s-14.4-13.7-18.3-24.8-5.9-25.3-5.9-42.6,1.8-32,5.5-43.1,9.5-19.3,17.7-24.7,19-8,32.3-8a68.6,68.6,0,0,1,60.9,35.4c6.4,11.3,9.6,24.7,9.6,40.4s-3.2,29.1-9.6,40.4a67.9,67.9,0,0,1-25.7,26.1A70.4,70.4,0,0,1,1250.7,411.8Zm-14.4-46.9a22,22,0,0,0,20.6-12.9c2.1-4.2,3.2-9.5,3.2-15.7s-1.1-11.7-3.2-16a22.5,22.5,0,0,0-8.6-9.6,22.2,22.2,0,0,0-12-3.2,22.5,22.5,0,0,0-12,3.2,21.7,21.7,0,0,0-8.5,9.6c-2.2,4.3-3.2,9.6-3.2,16s1,11.5,3.2,15.7a22.5,22.5,0,0,0,8.5,9.7A23.4,23.4,0,0,0,1236.3,364.9Z"/><path class="cls-1" d="M1370.3,251.4c-11.1,0-19.9-2.9-26.4-8.8a29.1,29.1,0,0,1,0-43.7c6.5-5.9,15.3-8.8,26.4-8.8s19.8,2.7,26.4,8.2a26.8,26.8,0,0,1,9.9,21.4,29.5,29.5,0,0,1-9.9,22.8C1390.1,248.5,1381.3,251.4,1370.3,251.4Zm-30.2,157.8v-146h60.3v146Z"/><path class="cls-1" d="M1413.8,315.2v-44H1524v44Zm83.8,96.6q-30.1,0-47-14.5t-16.8-44.7V230.4h60.3V352q0,6.8,3.6,10.5a12.2,12.2,0,0,0,8.9,3.7,23.2,23.2,0,0,0,13.6-4l14.5,41.9A54.7,54.7,0,0,1,1518,410,112.2,112.2,0,0,1,1497.6,411.8Z"/><path class="cls-1" d="M1596.8,411.8c-11.9,0-21.9-2-29.9-6.1a42.5,42.5,0,0,1-24.2-39.2c0-9.5,2.4-17.5,7.2-24.1s12.1-11.5,22-14.9,22.4-5.1,37.5-5.1h30.4v29.1H1619c-6.4,0-11.1,1-14,3.1s-4.4,5.1-4.4,9.2a10.7,10.7,0,0,0,3.8,8.4c2.6,2.2,6.1,3.3,10.6,3.3a20.4,20.4,0,0,0,11.3-3.3c3.5-2.2,6-5.7,7.6-10.5l7.8,17.8q-3.5,16.3-14.7,24.3C1619.5,409.2,1609.5,411.8,1596.8,411.8Zm41.4-2.6V383.3l-4.3-7V327.2c0-7.1-2.2-12.5-6.5-16.2s-11.4-5.7-21.2-5.7a70,70,0,0,0-20,3.1,58.7,58.7,0,0,0-17.4,8.4l-19.2-39.7c8.5-5.4,18.8-9.5,30.7-12.3a147.4,147.4,0,0,1,34.9-4.3q37.6,0,58.4,16.8t20.6,53.4v78.5Z"/><path class="cls-1" d="M1720.4,409.2V211.1h60.3V409.2Z"/></g><path class="cls-1" d="M0,198.2V452.8a61.2,61.2,0,0,0,30.7,53.1L251.2,633.3a61.5,61.5,0,0,0,61.3,0L533.1,505.9a61.2,61.2,0,0,0,30.7-53.1V198.2A61.4,61.4,0,0,0,533.1,145L312.5,17.7a61.1,61.1,0,0,0-61.3,0L30.7,145A61.4,61.4,0,0,0,0,198.2Z"/><path class="cls-2" d="M281.9,224V551.9a24.4,24.4,0,0,1-11.7-2.9L234,528.1h-.1a25.3,25.3,0,0,1-11.6-21.3V254.5l47.5-27.4h0A24.7,24.7,0,0,1,281.9,224Z"/><path class="cls-2" d="M281.9,99.2v95.1h0a25.6,25.6,0,0,0-11.5,2.7l-48.1,27.8V143.4a25.5,25.5,0,0,1,11.4-20.3l36.8-21.2A25.9,25.9,0,0,1,281.9,99.2Z"/><path class="cls-3" d="M341.5,254.5V508.1A25.3,25.3,0,0,1,330,528l-36.4,21a24.4,24.4,0,0,1-11.7,2.9V224h0a24.4,24.4,0,0,1,11.5,2.8Z"/><path class="cls-3" d="M341.5,144.3v80.5l-47.9-27.7a25.6,25.6,0,0,0-11.7-2.8V99.2a25.9,25.9,0,0,1,11.4,2.7l36.4,21A25.3,25.3,0,0,1,341.5,144.3Z"/></svg>