<svg id="Layer_1" data-name="Layer 1" xmlns="http://www.w3.org/2000/svg" viewBox="0 0 1772.3 2000"><defs><style>.cls-1{fill:#5082c3;}.cls-2{fill:#ccc;}.cls-3{fill:#f2f2f2;}</style></defs><path class="cls-1" d="M25.9,538.7v922.6a61.3,61.3,0,0,0,30.6,53.1l799,461.3a61.5,61.5,0,0,0,61.3,0l798.9-461.3a61.4,61.4,0,0,0,30.7-53.1V538.7a61.4,61.4,0,0,0-30.7-53.1L916.8,24.3a61.5,61.5,0,0,0-61.3,0L56.5,485.6A61.3,61.3,0,0,0,25.9,538.7Z"/><path class="cls-2" d="M886.1,690.3V1690.9a76.6,76.6,0,0,1-35.7-8.7l-110.5-63.7-.2-.2a77.3,77.3,0,0,1-35.5-65.1V783.4l145.1-83.7h.1A76.9,76.9,0,0,1,886.1,690.3Z"/><path class="cls-2" d="M886.1,309.4V599.6h0A76.7,76.7,0,0,0,851,608L704.2,692.7V444.1a77.3,77.3,0,0,1,34.9-61.7l112.4-64.8A76.1,76.1,0,0,1,886.1,309.4Z"/><path class="cls-3" d="M1068,783.4v773.8a77.2,77.2,0,0,1-35.1,60.9l-111,64.1a77,77,0,0,1-35.8,8.7V690.3h.1a76.4,76.4,0,0,1,35.1,8.4Z"/><path class="cls-3" d="M1068,447.2V692.6L921.8,608.3a76.3,76.3,0,0,0-35.7-8.7V309.4a78.2,78.2,0,0,1,34.8,8.2L1032,381.8A77.2,77.2,0,0,1,1068,447.2Z"/></svg>