<svg xmlns="http://www.w3.org/2000/svg" width="252" height="287" viewBox="0 0 252 287" fill="none">
    <path
        d="M0.451175 78.899V207.775C0.449478 210.277 1.10634 212.735 2.35543 214.901C3.60451 217.068 5.40159 218.865 7.56516 220.112L118.886 284.561C121.047 285.807 123.496 286.462 125.989 286.462C128.481 286.462 130.93 285.807 133.091 284.561L244.412 220.112C246.576 218.865 248.373 217.068 249.622 214.901C250.871 212.735 251.528 210.277 251.526 207.775V78.899C251.528 76.3969 250.871 73.9387 249.622 71.7725C248.373 69.6064 246.576 67.8091 244.412 66.5621L133.091 2.11256C130.933 0.857991 128.483 0.197266 125.989 0.197266C123.494 0.197266 121.044 0.857991 118.886 2.11256L7.56516 66.5621C5.40159 67.8091 3.60451 69.6064 2.35543 71.7725C1.10634 73.9387 0.449478 76.3969 0.451175 78.899Z"
        fill="#2D8CFF" />
</svg>