<svg width="272" height="362" viewBox="0 0 272 362" fill="none" xmlns="http://www.w3.org/2000/svg">
<g clip-path="url(#clip0_3_19)">
<path d="M14.6219 349.941H0V306.472H14.6219V349.941ZM29.1048 333.91H13.6255V321.875H29.1048V333.91ZM28.1315 306.472H42.7303V349.941H28.1315V306.472Z" fill="#2D8CFF"/>
<path d="M67.2699 350.569C63.4233 350.569 60.0401 349.802 57.074 348.292C54.2329 346.881 51.8293 344.72 50.1222 342.042C48.4075 339.393 47.5732 336.35 47.5732 332.934C47.5732 329.519 48.4075 326.452 50.1222 323.804C51.8307 321.132 54.2345 318.979 57.074 317.577C60.0401 316.09 63.4233 315.347 67.2699 315.347C71.1166 315.347 74.523 316.09 77.4891 317.577C80.3438 318.966 82.7584 321.121 84.464 323.804C86.1325 326.452 86.9667 329.496 86.9667 332.934C86.9667 336.35 86.1325 339.393 84.464 342.042C82.7956 344.69 80.4552 346.781 77.4891 348.292C74.523 349.802 71.1166 350.569 67.2699 350.569ZM67.2699 339.626C68.2488 339.651 69.2142 339.393 70.0507 338.882C70.9184 338.34 71.6107 337.557 72.0435 336.628C72.5631 335.468 72.8165 334.206 72.785 332.934C72.785 331.424 72.5301 330.193 72.0435 329.217C71.5965 328.316 70.906 327.559 70.0507 327.033C69.2045 326.546 68.2457 326.29 67.2699 326.29C66.2942 326.29 65.3354 326.546 64.4892 327.033C63.6339 327.559 62.9434 328.316 62.4964 329.217C62.0098 330.193 61.7549 331.424 61.7549 332.934C61.7234 334.206 61.9768 335.468 62.4964 336.628C62.9292 337.557 63.6215 338.34 64.4892 338.882C65.3257 339.393 66.2911 339.651 67.2699 339.626Z" fill="#2D8CFF"/>
<path d="M104.624 350.569C101.749 350.563 98.8829 350.252 96.0735 349.639C93.2619 349.004 90.991 348.191 89.2607 347.2L93.1074 337.953C94.8588 338.965 96.7479 339.716 98.7152 340.183C100.744 340.71 102.83 340.983 104.925 340.996C106.617 340.996 107.776 340.857 108.378 340.555C108.981 340.253 109.259 339.881 109.259 339.393C109.259 338.905 108.911 338.534 108.216 338.301C107.31 338.026 106.378 337.847 105.435 337.767C104.277 337.651 103.002 337.488 101.612 337.302C100.205 337.113 98.8118 336.834 97.4407 336.466C96.0786 336.115 94.7803 335.55 93.594 334.793C92.4297 334.035 91.4736 332.997 90.8133 331.773C90.095 330.518 89.7474 328.915 89.7474 326.963C89.7258 324.852 90.4203 322.796 91.717 321.132C93.0147 319.389 94.938 317.995 97.5334 316.927C100.129 315.858 103.303 315.347 107.104 315.347C109.598 315.352 112.087 315.577 114.542 316.02C116.998 316.485 119.13 317.182 120.915 318.135L117.068 327.405C115.47 326.509 113.754 325.844 111.97 325.43C110.431 325.101 108.863 324.93 107.289 324.919C105.505 324.919 104.3 325.081 103.651 325.407C103.002 325.732 102.701 326.104 102.701 326.522C102.701 326.94 103.048 327.405 103.744 327.637C104.653 327.933 105.594 328.12 106.547 328.195L110.348 328.659C111.75 328.851 113.137 329.146 114.496 329.542C115.847 329.916 117.135 330.487 118.319 331.238C119.478 332.003 120.433 333.04 121.1 334.259C121.795 335.513 122.143 337.116 122.143 339.068C122.143 341.126 121.467 343.126 120.219 344.76C118.945 346.526 116.998 347.92 114.403 348.989C111.808 350.057 108.54 350.569 104.624 350.569Z" fill="#2D8CFF"/>
<path d="M126.36 362V315.974H139.685V320.575L139.731 332.981L140.357 345.411V362H126.36ZM148.977 350.569C146.034 350.569 143.624 349.942 141.701 348.664C139.777 347.386 138.364 345.481 137.46 342.902C136.556 340.323 136.093 337.001 136.093 332.981C136.093 328.962 136.51 325.547 137.367 322.968C138.225 320.389 139.569 318.46 141.469 317.206C143.369 315.951 145.872 315.347 148.977 315.347C151.844 315.325 154.666 316.062 157.157 317.485C159.648 318.937 161.698 321.041 163.089 323.572C164.572 326.205 165.314 329.341 165.314 332.981C165.314 336.621 164.572 339.758 163.089 342.391C161.705 344.92 159.652 347.018 157.157 348.455C154.66 349.86 151.84 350.589 148.977 350.569ZM145.617 339.626C146.603 339.648 147.574 339.39 148.421 338.883C149.281 338.349 149.966 337.573 150.39 336.652C150.9 335.653 151.132 334.445 151.132 332.981C151.132 331.518 150.9 330.263 150.39 329.264C149.966 328.343 149.281 327.568 148.421 327.034C147.57 326.547 146.608 326.291 145.628 326.291C144.649 326.291 143.687 326.547 142.836 327.034C141.97 327.561 141.284 328.339 140.866 329.264C140.357 330.263 140.125 331.494 140.125 332.981C140.125 334.468 140.357 335.653 140.866 336.652C141.284 337.578 141.97 338.355 142.836 338.883C143.675 339.387 144.639 339.645 145.617 339.626Z" fill="#2D8CFF"/>
<path d="M176.714 313.233C174.165 313.233 172.126 312.559 170.596 311.188C169.864 310.562 169.278 309.781 168.882 308.902C168.485 308.022 168.287 307.065 168.302 306.1C168.282 305.134 168.478 304.176 168.875 303.296C169.272 302.415 169.86 301.635 170.596 301.012C172.126 299.641 174.165 298.944 176.714 298.944C179.263 298.944 181.325 299.595 182.855 300.873C183.592 301.469 184.183 302.228 184.581 303.09C184.979 303.952 185.173 304.895 185.149 305.845C185.149 308.005 184.384 309.771 182.855 311.165C181.325 312.559 179.286 313.233 176.714 313.233ZM169.716 349.942V315.974H183.712V349.942H169.716Z" fill="#2D8CFF"/>
<path d="M186.817 328.079V317.834H212.4V328.079H186.817ZM206.259 350.569C201.609 350.569 197.979 349.439 195.368 347.177C192.757 344.916 191.46 341.446 191.475 336.769V308.331H205.471V336.653C205.471 337.675 205.749 338.488 206.306 339.069C206.568 339.353 206.888 339.578 207.243 339.73C207.598 339.882 207.982 339.958 208.368 339.952C209.495 339.965 210.6 339.641 211.543 339.022L214.879 348.757C213.678 349.436 212.369 349.899 211.01 350.128C209.443 350.421 207.853 350.568 206.259 350.569Z" fill="#2D8CFF"/>
<path d="M229.316 350.569C226.536 350.569 224.242 350.081 222.365 349.128C220.653 348.306 219.213 347.008 218.215 345.39C217.217 343.772 216.703 341.9 216.734 339.997C216.734 337.813 217.29 335.955 218.402 334.421C219.514 332.888 221.229 331.726 223.523 330.936C225.817 330.146 228.714 329.751 232.213 329.751H239.281V336.536H234.461C232.955 336.536 231.889 336.768 231.193 337.233C230.498 337.697 230.174 338.441 230.174 339.393C230.171 339.765 230.25 340.134 230.406 340.471C230.563 340.809 230.792 341.107 231.078 341.345C231.68 341.856 232.491 342.112 233.534 342.112C234.462 342.115 235.372 341.849 236.152 341.345C236.963 340.81 237.543 339.997 237.914 338.882L239.721 343.041C239.188 345.573 238.053 347.455 236.315 348.71C234.577 349.964 232.236 350.569 229.316 350.569ZM238.91 349.941V343.924L237.914 342.297V330.867C237.914 329.217 237.404 327.962 236.407 327.08C235.411 326.197 233.742 325.778 231.472 325.778C229.899 325.782 228.337 326.025 226.837 326.499C225.387 326.902 224.022 327.563 222.805 328.45L218.356 319.203C220.326 317.949 222.712 316.996 225.47 316.346C228.124 315.689 230.847 315.354 233.58 315.347C239.389 315.347 243.9 316.648 247.113 319.25C250.326 321.852 251.925 325.995 251.91 331.68V349.941H238.91Z" fill="#2D8CFF"/>
<path d="M257.98 349.942V303.87H272V349.942H257.98Z" fill="#2D8CFF"/>
<path d="M10.4512 80.899V209.775C10.4495 212.277 11.1063 214.735 12.3554 216.901C13.6045 219.068 15.4016 220.865 17.5652 222.112L128.886 286.561C131.047 287.807 133.496 288.462 135.989 288.462C138.481 288.462 140.93 287.807 143.091 286.561L254.412 222.112C256.576 220.865 258.373 219.068 259.622 216.901C260.871 214.735 261.528 212.277 261.526 209.775V80.899C261.528 78.3969 260.871 75.9387 259.622 73.7725C258.373 71.6064 256.576 69.8091 254.412 68.5621L143.091 4.11256C140.933 2.85799 138.483 2.19727 135.989 2.19727C133.494 2.19727 131.044 2.85799 128.886 4.11256L17.5652 68.5621C15.4016 69.8091 13.6045 71.6064 12.3554 73.7725C11.1063 75.9387 10.4495 78.3969 10.4512 80.899Z" fill="#2D8CFF"/>
<path d="M136 100.02V246.413C134.185 246.415 132.396 245.977 130.786 245.136L114.658 235.819H114.635C113.043 234.795 111.733 233.385 110.826 231.721C109.919 230.056 109.444 228.19 109.444 226.293V113.634L130.624 101.39C132.276 100.495 134.123 100.024 136 100.02Z" fill="#CCCCCC"/>
<path d="M136 44.3059V86.7533C134.22 86.7478 132.463 87.17 130.879 87.9847L109.444 100.368V64.0078C109.511 62.2023 110.009 60.4392 110.896 58.8666C111.783 57.2939 113.033 55.9576 114.542 54.97L130.949 45.4908C132.515 44.7013 134.247 44.2952 136 44.3059Z" fill="#CCCCCC"/>
<path d="M162.533 113.634V226.851C162.443 228.638 161.933 230.378 161.043 231.929C160.152 233.48 158.908 234.797 157.411 235.772L141.214 245.136C139.604 245.977 137.815 246.415 136 246.413V100.02C137.781 100.014 139.537 100.436 141.121 101.251L162.533 113.634Z" fill="#F2F2F2"/>
<path d="M162.533 64.4491V100.368L141.214 88.031C139.603 87.1926 137.815 86.7543 136 86.7532V44.3057C137.76 44.3009 139.498 44.7066 141.075 45.4906C141.075 45.4906 157.249 54.8769 157.296 54.8769C158.902 55.9016 160.223 57.3161 161.139 58.9894C162.054 60.6627 162.534 62.5406 162.533 64.4491Z" fill="#F2F2F2"/>
</g>
<defs>
<clipPath id="clip0_3_19">
<rect width="272" height="362" fill="white"/>
</clipPath>
</defs>
</svg>
