<svg xmlns="http://www.w3.org/2000/svg" width="20" height="20" viewBox="0 0 20 20" fill="none">
    <path
        d="M9.99984 1.66675C5.40817 1.66675 1.6665 5.40841 1.6665 10.0001C1.6665 14.5917 5.40817 18.3334 9.99984 18.3334C14.5915 18.3334 18.3332 14.5917 18.3332 10.0001C18.3332 5.40841 14.5915 1.66675 9.99984 1.66675ZM13.3332 10.6251H10.6248V13.3334C10.6248 13.6751 10.3415 13.9584 9.99984 13.9584C9.65817 13.9584 9.37484 13.6751 9.37484 13.3334V10.6251H6.6665C6.32484 10.6251 6.0415 10.3417 6.0415 10.0001C6.0415 9.65842 6.32484 9.37508 6.6665 9.37508H9.37484V6.66675C9.37484 6.32508 9.65817 6.04175 9.99984 6.04175C10.3415 6.04175 10.6248 6.32508 10.6248 6.66675V9.37508H13.3332C13.6748 9.37508 13.9582 9.65842 13.9582 10.0001C13.9582 10.3417 13.6748 10.6251 13.3332 10.6251Z"
        fill="#22A06B" />
</svg>