<svg width="209" height="25" viewBox="0 0 209 25" fill="none" xmlns="http://www.w3.org/2000/svg">
<g clip-path="url(#clip0_19_75)">
<path d="M21.2041 17.3732L19.6101 18.9673L19.9415 19.2986L22.4167 21.7756C23.16 22.5189 24.0626 22.8932 25.114 22.8932H33.4137L23.3015 12.781C23.1797 14.4556 22.4812 16.0962 21.2041 17.3732Z" fill="white"/>
<path fill-rule="evenodd" clip-rule="evenodd" d="M11.9097 12.7728L11.9105 12.772H11.9087C11.9091 12.7723 11.9094 12.7725 11.9097 12.7728ZM11.9097 12.7728L11.4341 13.2484L12.729 13.5959C12.4768 13.3024 12.2031 13.0287 11.9097 12.7728ZM11.2872 16.3289L8.97318 15.7091L10.5887 14.0936L12.9009 14.7151L11.2872 16.3289ZM13.8329 15.2484L13.8341 15.2472H13.8323L13.8329 15.2484ZM13.8329 15.2484L12.4425 16.6388L14.5165 17.1941C14.3715 16.5085 14.1389 15.857 13.8329 15.2484ZM11.5971 17.4842L13.9111 18.1039L12.2956 19.7194L9.98337 19.0979L11.5971 17.4842ZM7.52252 21.5589L9.83655 22.1786L11.4503 20.5648L9.13625 19.9451L7.52252 21.5589ZM7.91296 24.0108H4.98102L6.63057 22.3612L8.94281 22.9809L7.91296 24.0108ZM9.42636 24.0555L10.9774 23.9713C11.255 23.9248 11.5237 23.8603 11.7852 23.7743L10.1464 23.3355L9.42636 24.0555ZM13.1464 23.0329L10.947 22.4436L12.5607 20.8299L14.3231 21.3027C14.1977 21.7021 14.0401 22.0872 13.8574 22.458C13.7589 22.5493 13.6604 22.6389 13.5601 22.7212C13.4258 22.8323 13.2879 22.9362 13.1464 23.0329ZM13.4526 20.0293L14.5612 20.3266C14.6472 19.8556 14.6938 19.372 14.6938 18.8759C14.6938 18.8616 14.6933 18.8472 14.6929 18.8329C14.6924 18.8186 14.692 18.8042 14.692 18.7899L13.4526 20.0293ZM3.20606 21.4764L1.35591 23.3266L0.626953 24.0555H1.90934H3.55889L5.5183 22.0961L3.20606 21.4764ZM6.36546 21.2489L4.05322 20.6292L5.66695 19.0155L7.97919 19.6352L6.36546 21.2489ZM6.51416 18.1683L8.8264 18.788L10.4401 17.1743L8.12789 16.5546L6.51416 18.1683Z" fill="white"/>
<path opacity="0.43" d="M9.96168 19.1211L9.98318 19.0978L9.92407 19.0835L9.96168 19.1211Z" fill="white"/>
<path opacity="0.43" d="M9.96168 19.1211L9.98318 19.0978L9.92407 19.0835L9.96168 19.1211Z" fill="white"/>
<path opacity="0.44" d="M9.96168 19.1211L9.98318 19.0978L9.92407 19.0835L9.96168 19.1211Z" fill="white"/>
<path d="M20.6991 15.5875C22.1534 13.3702 21.9081 10.3504 19.963 8.40537L13.2322 1.67463C12.1182 0.560597 10.7642 0 9.18806 0H0L12.4316 12.4316L14.1349 14.1367C14.6579 14.7009 15.3779 15.7612 15.5767 16.5099C15.9313 17.8728 15.917 19.4884 15.5964 20.8585L15.7594 20.6955L19.963 16.4919C20.2084 16.2466 20.4251 15.9833 20.6167 15.7075" fill="white"/>
<path d="M23.3015 11.7224L33.4137 1.6084H25.114C24.0644 1.6084 23.16 1.98273 22.4185 2.72601L19.6101 5.53437L21.2041 7.1284C22.4812 8.40541 23.1797 10.046 23.3015 11.7206V11.7224Z" fill="white"/>
<path opacity="0.3" d="M21.2041 17.3732L19.6101 18.9673L19.9415 19.2986L22.4167 21.7756C23.16 22.5189 24.0626 22.8932 25.114 22.8932H33.4137L23.3015 12.781C23.1797 14.4556 22.4812 16.0962 21.2041 17.3732Z" fill="white"/>
</g>
<path d="M39.8095 9.36542V1.38452H38.5593C36.2166 1.38452 34.4883 3.11467 34.4883 5.45557V10.6174C34.4883 12.9583 36.2166 14.6884 38.5593 14.6884H54.0698C55.0011 14.6884 55.6925 15.2472 55.6925 16.0191C55.6925 16.7911 55.0011 17.3499 54.0698 17.3499H38.5593C36.2184 17.3499 34.4883 19.08 34.4883 21.4209V22.6711H55.6943V9.36542H39.8095Z" fill="white"/>
<path fill-rule="evenodd" clip-rule="evenodd" d="M39.8095 1.38452V9.36542H55.6941V5.4287C55.7066 3.10034 57.4314 1.38452 59.7633 1.38452H61.0135V18.5983C61.0135 20.9391 59.2833 22.6693 56.9424 22.6693H55.6943V22.6711H34.4883V21.4209C34.4883 19.08 36.2184 17.3499 38.5593 17.3499H54.0698C55.0011 17.3499 55.6925 16.7911 55.6925 16.0191C55.6925 15.2472 55.0011 14.6884 54.0698 14.6884H38.5593C36.2166 14.6884 34.4883 12.9583 34.4883 10.6174V5.45557C34.4883 3.11467 36.2166 1.38452 38.5593 1.38452H39.8095Z" fill="white"/>
<path d="M73.8148 1.10229H66.1796C63.8265 1.10229 62.0884 2.87767 62.0884 5.28125V18.7741C62.0884 21.1777 63.8265 22.953 66.1796 22.953H67.4364L67.431 7.81229C67.4952 4.21785 70.3279 1.29349 73.8148 1.10229Z" fill="white"/>
<path d="M84.6837 1.10229H73.7613C70.2761 1.29349 67.4987 4.20874 67.4346 7.80137C67.6093 7.06937 68.2261 6.56316 69.014 6.56316H81.7958C82.7317 6.56316 83.4269 7.27331 83.4269 8.22928V10.1685C83.4269 11.1245 82.7317 11.8347 81.7958 11.8347H71.8752C69.5221 11.8347 67.784 13.61 67.784 16.0136V17.2973H84.6837C87.0368 17.2973 88.7749 15.522 88.7749 13.1184V5.28125C88.7749 2.87767 87.0368 1.10229 84.6837 1.10229Z" fill="white"/>
<rect x="96.7749" width="1" height="24" fill="white"/>
<path d="M103.539 11.0278V6.55483L103.714 6.73683H101.866V6.12783H105.905V6.73683H104.057L104.225 6.55483V11.0278H103.539ZM109.872 6.07183C110.246 6.07183 110.589 6.13483 110.901 6.26083C111.219 6.38217 111.494 6.55717 111.727 6.78583C111.965 7.00983 112.147 7.2735 112.273 7.57683C112.404 7.88017 112.469 8.21383 112.469 8.57783C112.469 8.94183 112.404 9.2755 112.273 9.57883C112.147 9.88217 111.965 10.1482 111.727 10.3768C111.494 10.6008 111.219 10.7758 110.901 10.9018C110.589 11.0232 110.246 11.0838 109.872 11.0838C109.494 11.0838 109.147 11.0208 108.829 10.8948C108.512 10.7688 108.237 10.5938 108.003 10.3698C107.77 10.1412 107.588 9.87517 107.457 9.57183C107.327 9.2685 107.261 8.93717 107.261 8.57783C107.261 8.2185 107.327 7.88717 107.457 7.58383C107.588 7.2805 107.77 7.01683 108.003 6.79283C108.237 6.56417 108.512 6.38683 108.829 6.26083C109.147 6.13483 109.494 6.07183 109.872 6.07183ZM109.872 6.69483C109.625 6.69483 109.392 6.7345 109.172 6.81383C108.958 6.89317 108.766 7.00517 108.598 7.14983C108.43 7.28983 108.293 7.45783 108.185 7.65383C108.083 7.84983 108.017 8.0645 107.989 8.29783H111.748C111.72 8.0645 111.653 7.84983 111.545 7.65383C111.438 7.45783 111.3 7.28983 111.132 7.14983C110.969 7.00517 110.78 6.89317 110.565 6.81383C110.351 6.7345 110.12 6.69483 109.872 6.69483ZM109.872 10.4608C110.12 10.4608 110.351 10.4212 110.565 10.3418C110.78 10.2625 110.969 10.1528 111.132 10.0128C111.3 9.86817 111.438 9.69783 111.545 9.50183C111.653 9.30583 111.72 9.08883 111.748 8.85083H107.989C108.017 9.08883 108.083 9.30583 108.185 9.50183C108.293 9.69783 108.43 9.86817 108.598 10.0128C108.766 10.1528 108.958 10.2625 109.172 10.3418C109.392 10.4212 109.625 10.4608 109.872 10.4608ZM114.581 11.0278V6.12783H116.492C116.921 6.12783 117.288 6.1955 117.591 6.33083C117.894 6.46617 118.128 6.66217 118.291 6.91883C118.454 7.1755 118.536 7.48117 118.536 7.83583C118.536 8.1905 118.454 8.49617 118.291 8.75283C118.128 9.00483 117.894 9.20083 117.591 9.34083C117.288 9.47617 116.921 9.54383 116.492 9.54383H114.966L115.281 9.21483V11.0278H114.581ZM115.281 9.28483L114.966 8.93483H116.471C116.919 8.93483 117.257 8.83917 117.486 8.64783C117.719 8.4565 117.836 8.18583 117.836 7.83583C117.836 7.48583 117.719 7.21517 117.486 7.02383C117.257 6.8325 116.919 6.73683 116.471 6.73683H114.966L115.281 6.38683V9.28483ZM120.49 11.0278V6.12783H121.183V9.90783L124.081 6.12783H124.725V11.0278H124.039V7.25483L121.134 11.0278H120.49ZM127.232 11.0278V6.12783H127.925V9.90783L130.823 6.12783H131.467V11.0278H130.781V7.25483L127.876 11.0278H127.232ZM129.339 5.78483C128.957 5.78483 128.66 5.70083 128.45 5.53283C128.245 5.36483 128.14 5.12917 128.135 4.82583H128.632C128.637 5.00783 128.702 5.15016 128.828 5.25283C128.954 5.35083 129.125 5.39983 129.339 5.39983C129.549 5.39983 129.717 5.35083 129.843 5.25283C129.974 5.15016 130.042 5.00783 130.046 4.82583H130.536C130.532 5.12917 130.424 5.36483 130.214 5.53283C130.009 5.70083 129.717 5.78483 129.339 5.78483ZM137.489 6.12783H138.189V11.0278H137.489V6.12783ZM134.675 11.0278H133.975V6.12783H134.675V11.0278ZM137.552 8.84383H134.605V8.23483H137.552V8.84383ZM143.557 11.0278V6.12783H144.131L146.329 9.83083H146.021L148.191 6.12783H148.765L148.772 11.0278H148.1L148.093 7.18483H148.254L146.322 10.4328H146L144.054 7.18483H144.229V11.0278H143.557ZM151.998 8.82283V8.24883H154.623V8.82283H151.998ZM152.628 6.07183C152.983 6.07183 153.31 6.13483 153.608 6.26083C153.907 6.38217 154.166 6.55717 154.385 6.78583C154.609 7.00983 154.782 7.2735 154.903 7.57683C155.029 7.88017 155.092 8.21383 155.092 8.57783C155.092 8.94183 155.029 9.2755 154.903 9.57883C154.782 9.88217 154.609 10.1482 154.385 10.3768C154.166 10.6008 153.907 10.7758 153.608 10.9018C153.31 11.0232 152.983 11.0838 152.628 11.0838C152.236 11.0838 151.875 11.0185 151.543 10.8878C151.217 10.7572 150.941 10.5658 150.717 10.3138L151.158 9.87283C151.354 10.0735 151.571 10.2205 151.809 10.3138C152.052 10.4072 152.313 10.4538 152.593 10.4538C152.85 10.4538 153.088 10.4072 153.307 10.3138C153.527 10.2205 153.716 10.0922 153.874 9.92883C154.038 9.76083 154.164 9.5625 154.252 9.33383C154.341 9.1005 154.385 8.8485 154.385 8.57783C154.385 8.30717 154.341 8.0575 154.252 7.82883C154.164 7.5955 154.038 7.39717 153.874 7.23383C153.716 7.06583 153.527 6.93517 153.307 6.84183C153.088 6.7485 152.85 6.70183 152.593 6.70183C152.313 6.70183 152.052 6.7485 151.809 6.84183C151.571 6.93517 151.354 7.08217 151.158 7.28283L150.717 6.84183C150.941 6.58983 151.217 6.3985 151.543 6.26783C151.875 6.13717 152.236 6.07183 152.628 6.07183ZM160.325 10.6988V6.73683H158.176L158.141 7.76583C158.127 8.11117 158.103 8.4425 158.071 8.75983C158.043 9.07717 158.001 9.36417 157.945 9.62083C157.889 9.87283 157.809 10.0805 157.707 10.2438C157.609 10.4072 157.483 10.5075 157.329 10.5448L156.573 10.4188C156.755 10.4328 156.904 10.3722 157.021 10.2368C157.142 10.0968 157.235 9.90317 157.301 9.65583C157.371 9.40383 157.422 9.11217 157.455 8.78083C157.487 8.44483 157.511 8.0855 157.525 7.70283L157.574 6.12783H161.018V10.6988H160.325ZM156.398 12.0988L156.405 10.4188H161.739V12.0988H161.088V11.0278H157.056L157.049 12.0988H156.398ZM164.397 8.82283V8.24883H167.022V8.82283H164.397ZM165.027 6.07183C165.381 6.07183 165.708 6.13483 166.007 6.26083C166.305 6.38217 166.564 6.55717 166.784 6.78583C167.008 7.00983 167.18 7.2735 167.302 7.57683C167.428 7.88017 167.491 8.21383 167.491 8.57783C167.491 8.94183 167.428 9.2755 167.302 9.57883C167.18 9.88217 167.008 10.1482 166.784 10.3768C166.564 10.6008 166.305 10.7758 166.007 10.9018C165.708 11.0232 165.381 11.0838 165.027 11.0838C164.635 11.0838 164.273 11.0185 163.942 10.8878C163.615 10.7572 163.34 10.5658 163.116 10.3138L163.557 9.87283C163.753 10.0735 163.97 10.2205 164.208 10.3138C164.45 10.4072 164.712 10.4538 164.992 10.4538C165.248 10.4538 165.486 10.4072 165.706 10.3138C165.925 10.2205 166.114 10.0922 166.273 9.92883C166.436 9.76083 166.562 9.5625 166.651 9.33383C166.739 9.1005 166.784 8.8485 166.784 8.57783C166.784 8.30717 166.739 8.0575 166.651 7.82883C166.562 7.5955 166.436 7.39717 166.273 7.23383C166.114 7.06583 165.925 6.93517 165.706 6.84183C165.486 6.7485 165.248 6.70183 164.992 6.70183C164.712 6.70183 164.45 6.7485 164.208 6.84183C163.97 6.93517 163.753 7.08217 163.557 7.28283L163.116 6.84183C163.34 6.58983 163.615 6.3985 163.942 6.26783C164.273 6.13717 164.635 6.07183 165.027 6.07183ZM170.189 8.82283V8.24883H172.814V8.82283H170.189ZM170.819 6.07183C171.174 6.07183 171.501 6.13483 171.799 6.26083C172.098 6.38217 172.357 6.55717 172.576 6.78583C172.8 7.00983 172.973 7.2735 173.094 7.57683C173.22 7.88017 173.283 8.21383 173.283 8.57783C173.283 8.94183 173.22 9.2755 173.094 9.57883C172.973 9.88217 172.8 10.1482 172.576 10.3768C172.357 10.6008 172.098 10.7758 171.799 10.9018C171.501 11.0232 171.174 11.0838 170.819 11.0838C170.427 11.0838 170.066 11.0185 169.734 10.8878C169.408 10.7572 169.132 10.5658 168.908 10.3138L169.349 9.87283C169.545 10.0735 169.762 10.2205 170 10.3138C170.243 10.4072 170.504 10.4538 170.784 10.4538C171.041 10.4538 171.279 10.4072 171.498 10.3138C171.718 10.2205 171.907 10.0922 172.065 9.92883C172.229 9.76083 172.355 9.5625 172.443 9.33383C172.532 9.1005 172.576 8.8485 172.576 8.57783C172.576 8.30717 172.532 8.0575 172.443 7.82883C172.355 7.5955 172.229 7.39717 172.065 7.23383C171.907 7.06583 171.718 6.93517 171.498 6.84183C171.279 6.7485 171.041 6.70183 170.784 6.70183C170.504 6.70183 170.243 6.7485 170 6.84183C169.762 6.93517 169.545 7.08217 169.349 7.28283L168.908 6.84183C169.132 6.58983 169.408 6.3985 169.734 6.26783C170.066 6.13717 170.427 6.07183 170.819 6.07183ZM175.03 11.0838C174.96 11.0838 174.89 11.0792 174.82 11.0698C174.75 11.0605 174.673 11.0465 174.589 11.0278L174.638 10.4048C174.712 10.4235 174.787 10.4328 174.862 10.4328C175.067 10.4328 175.23 10.3512 175.352 10.1878C175.473 10.0245 175.562 9.77717 175.618 9.44583C175.678 9.1145 175.718 8.69683 175.737 8.19283L175.814 6.12783H179.265V11.0278H178.579V6.55483L178.747 6.73683H176.262L176.416 6.54783L176.36 8.17183C176.346 8.65717 176.313 9.08183 176.262 9.44583C176.21 9.80983 176.133 10.1132 176.031 10.3558C175.928 10.5985 175.795 10.7805 175.632 10.9018C175.473 11.0232 175.272 11.0838 175.03 11.0838ZM182.492 8.82283V8.24883H185.117V8.82283H182.492ZM183.122 6.07183C183.477 6.07183 183.803 6.13483 184.102 6.26083C184.401 6.38217 184.66 6.55717 184.879 6.78583C185.103 7.00983 185.276 7.2735 185.397 7.57683C185.523 7.88017 185.586 8.21383 185.586 8.57783C185.586 8.94183 185.523 9.2755 185.397 9.57883C185.276 9.88217 185.103 10.1482 184.879 10.3768C184.66 10.6008 184.401 10.7758 184.102 10.9018C183.803 11.0232 183.477 11.0838 183.122 11.0838C182.73 11.0838 182.368 11.0185 182.037 10.8878C181.71 10.7572 181.435 10.5658 181.211 10.3138L181.652 9.87283C181.848 10.0735 182.065 10.2205 182.303 10.3138C182.546 10.4072 182.807 10.4538 183.087 10.4538C183.344 10.4538 183.582 10.4072 183.801 10.3138C184.02 10.2205 184.209 10.0922 184.368 9.92883C184.531 9.76083 184.657 9.5625 184.746 9.33383C184.835 9.1005 184.879 8.8485 184.879 8.57783C184.879 8.30717 184.835 8.0575 184.746 7.82883C184.657 7.5955 184.531 7.39717 184.368 7.23383C184.209 7.06583 184.02 6.93517 183.801 6.84183C183.582 6.7485 183.344 6.70183 183.087 6.70183C182.807 6.70183 182.546 6.7485 182.303 6.84183C182.065 6.93517 181.848 7.08217 181.652 7.28283L181.211 6.84183C181.435 6.58983 181.71 6.3985 182.037 6.26783C182.368 6.13717 182.73 6.07183 183.122 6.07183ZM187.333 11.0838C187.263 11.0838 187.193 11.0792 187.123 11.0698C187.053 11.0605 186.976 11.0465 186.892 11.0278L186.941 10.4048C187.015 10.4235 187.09 10.4328 187.165 10.4328C187.37 10.4328 187.533 10.3512 187.655 10.1878C187.776 10.0245 187.865 9.77717 187.921 9.44583C187.981 9.1145 188.021 8.69683 188.04 8.19283L188.117 6.12783H191.568V11.0278H190.882V6.55483L191.05 6.73683H188.565L188.719 6.54783L188.663 8.17183C188.649 8.65717 188.616 9.08183 188.565 9.44583C188.513 9.80983 188.436 10.1132 188.334 10.3558C188.231 10.5985 188.098 10.7805 187.935 10.9018C187.776 11.0232 187.575 11.0838 187.333 11.0838ZM104.729 18.0838C104.356 18.0838 104.01 18.0232 103.693 17.9018C103.38 17.7758 103.107 17.6008 102.874 17.3768C102.645 17.1482 102.466 16.8822 102.335 16.5788C102.204 16.2755 102.139 15.9418 102.139 15.5778C102.139 15.2138 102.204 14.8802 102.335 14.5768C102.466 14.2735 102.648 14.0098 102.881 13.7858C103.114 13.5572 103.387 13.3822 103.7 13.2608C104.017 13.1348 104.363 13.0718 104.736 13.0718C105.114 13.0718 105.462 13.1372 105.779 13.2678C106.101 13.3938 106.374 13.5828 106.598 13.8348L106.143 14.2758C105.956 14.0798 105.746 13.9352 105.513 13.8418C105.28 13.7438 105.03 13.6948 104.764 13.6948C104.489 13.6948 104.232 13.7415 103.994 13.8348C103.761 13.9282 103.558 14.0588 103.385 14.2268C103.212 14.3948 103.077 14.5955 102.979 14.8288C102.886 15.0575 102.839 15.3072 102.839 15.5778C102.839 15.8485 102.886 16.1005 102.979 16.3338C103.077 16.5625 103.212 16.7608 103.385 16.9288C103.558 17.0968 103.761 17.2275 103.994 17.3208C104.232 17.4142 104.489 17.4608 104.764 17.4608C105.03 17.4608 105.28 17.4142 105.513 17.3208C105.746 17.2228 105.956 17.0735 106.143 16.8728L106.598 17.3138C106.374 17.5658 106.101 17.7572 105.779 17.8878C105.462 18.0185 105.112 18.0838 104.729 18.0838ZM110.645 18.0838C110.271 18.0838 109.924 18.0208 109.602 17.8948C109.284 17.7688 109.009 17.5938 108.776 17.3698C108.542 17.1412 108.36 16.8752 108.23 16.5718C108.099 16.2685 108.034 15.9372 108.034 15.5778C108.034 15.2185 108.099 14.8872 108.23 14.5838C108.36 14.2805 108.542 14.0168 108.776 13.7928C109.009 13.5642 109.284 13.3868 109.602 13.2608C109.919 13.1348 110.267 13.0718 110.645 13.0718C111.018 13.0718 111.361 13.1348 111.674 13.2608C111.991 13.3822 112.266 13.5572 112.5 13.7858C112.738 14.0098 112.92 14.2735 113.046 14.5768C113.176 14.8802 113.242 15.2138 113.242 15.5778C113.242 15.9418 113.176 16.2755 113.046 16.5788C112.92 16.8822 112.738 17.1482 112.5 17.3768C112.266 17.6008 111.991 17.7758 111.674 17.9018C111.361 18.0232 111.018 18.0838 110.645 18.0838ZM110.645 17.4608C110.915 17.4608 111.165 17.4142 111.394 17.3208C111.627 17.2275 111.828 17.0968 111.996 16.9288C112.168 16.7562 112.301 16.5555 112.395 16.3268C112.493 16.0982 112.542 15.8485 112.542 15.5778C112.542 15.3072 112.493 15.0575 112.395 14.8288C112.301 14.6002 112.168 14.4018 111.996 14.2338C111.828 14.0612 111.627 13.9282 111.394 13.8348C111.165 13.7415 110.915 13.6948 110.645 13.6948C110.369 13.6948 110.115 13.7415 109.882 13.8348C109.653 13.9282 109.452 14.0612 109.28 14.2338C109.107 14.4018 108.972 14.6002 108.874 14.8288C108.78 15.0575 108.734 15.3072 108.734 15.5778C108.734 15.8485 108.78 16.0982 108.874 16.3268C108.972 16.5555 109.107 16.7562 109.28 16.9288C109.452 17.0968 109.653 17.2275 109.882 17.3208C110.115 17.4142 110.369 17.4608 110.645 17.4608ZM114.986 18.0838C114.916 18.0838 114.846 18.0792 114.776 18.0698C114.706 18.0605 114.629 18.0465 114.545 18.0278L114.594 17.4048C114.668 17.4235 114.743 17.4328 114.818 17.4328C115.023 17.4328 115.186 17.3512 115.308 17.1878C115.429 17.0245 115.518 16.7772 115.574 16.4458C115.634 16.1145 115.674 15.6968 115.693 15.1928L115.77 13.1278H119.221V18.0278H118.535V13.5548L118.703 13.7368H116.218L116.372 13.5478L116.316 15.1718C116.302 15.6572 116.269 16.0818 116.218 16.4458C116.166 16.8098 116.089 17.1132 115.987 17.3558C115.884 17.5985 115.751 17.7805 115.588 17.9018C115.429 18.0232 115.228 18.0838 114.986 18.0838ZM121.727 18.0278V13.1278H122.42V16.9078L125.318 13.1278H125.962V18.0278H125.276V14.2548L122.371 18.0278H121.727ZM128.177 18.0838C128.107 18.0838 128.037 18.0792 127.967 18.0698C127.897 18.0605 127.82 18.0465 127.736 18.0278L127.785 17.4048C127.86 17.4235 127.934 17.4328 128.009 17.4328C128.214 17.4328 128.378 17.3512 128.499 17.1878C128.62 17.0245 128.709 16.7772 128.765 16.4458C128.826 16.1145 128.865 15.6968 128.884 15.1928L128.961 13.1278H132.412V18.0278H131.726V13.5548L131.894 13.7368H129.409L129.563 13.5478L129.507 15.1718C129.493 15.6572 129.46 16.0818 129.409 16.4458C129.358 16.8098 129.281 17.1132 129.178 17.3558C129.075 17.5985 128.942 17.7805 128.779 17.9018C128.62 18.0232 128.42 18.0838 128.177 18.0838ZM134.918 18.0278V13.1278H135.611V17.4188H138.341V13.1278H139.034V18.0278H134.918ZM139.139 19.1408V17.8458L139.307 18.0278H138.341V17.4188H139.79V19.1408H139.139ZM143.907 18.0838C143.534 18.0838 143.186 18.0208 142.864 17.8948C142.547 17.7688 142.271 17.5938 142.038 17.3698C141.805 17.1412 141.623 16.8752 141.492 16.5718C141.361 16.2685 141.296 15.9372 141.296 15.5778C141.296 15.2185 141.361 14.8872 141.492 14.5838C141.623 14.2805 141.805 14.0168 142.038 13.7928C142.271 13.5642 142.547 13.3868 142.864 13.2608C143.181 13.1348 143.529 13.0718 143.907 13.0718C144.28 13.0718 144.623 13.1348 144.936 13.2608C145.253 13.3822 145.529 13.5572 145.762 13.7858C146 14.0098 146.182 14.2735 146.308 14.5768C146.439 14.8802 146.504 15.2138 146.504 15.5778C146.504 15.9418 146.439 16.2755 146.308 16.5788C146.182 16.8822 146 17.1482 145.762 17.3768C145.529 17.6008 145.253 17.7758 144.936 17.9018C144.623 18.0232 144.28 18.0838 143.907 18.0838ZM143.907 17.4608C144.178 17.4608 144.427 17.4142 144.656 17.3208C144.889 17.2275 145.09 17.0968 145.258 16.9288C145.431 16.7562 145.564 16.5555 145.657 16.3268C145.755 16.0982 145.804 15.8485 145.804 15.5778C145.804 15.3072 145.755 15.0575 145.657 14.8288C145.564 14.6002 145.431 14.4018 145.258 14.2338C145.09 14.0612 144.889 13.9282 144.656 13.8348C144.427 13.7415 144.178 13.6948 143.907 13.6948C143.632 13.6948 143.377 13.7415 143.144 13.8348C142.915 13.9282 142.715 14.0612 142.542 14.2338C142.369 14.4018 142.234 14.6002 142.136 14.8288C142.043 15.0575 141.996 15.3072 141.996 15.5778C141.996 15.8485 142.043 16.0982 142.136 16.3268C142.234 16.5555 142.369 16.7562 142.542 16.9288C142.715 17.0968 142.915 17.2275 143.144 17.3208C143.377 17.4142 143.632 17.4608 143.907 17.4608ZM150.821 18.0838C150.447 18.0838 150.1 18.0208 149.778 17.8948C149.46 17.7688 149.185 17.5938 148.952 17.3698C148.718 17.1412 148.536 16.8752 148.406 16.5718C148.275 16.2685 148.21 15.9372 148.21 15.5778C148.21 15.2185 148.275 14.8872 148.406 14.5838C148.536 14.2805 148.718 14.0168 148.952 13.7928C149.185 13.5642 149.46 13.3868 149.778 13.2608C150.095 13.1348 150.443 13.0718 150.821 13.0718C151.194 13.0718 151.537 13.1348 151.85 13.2608C152.167 13.3822 152.442 13.5572 152.676 13.7858C152.914 14.0098 153.096 14.2735 153.222 14.5768C153.352 14.8802 153.418 15.2138 153.418 15.5778C153.418 15.9418 153.352 16.2755 153.222 16.5788C153.096 16.8822 152.914 17.1482 152.676 17.3768C152.442 17.6008 152.167 17.7758 151.85 17.9018C151.537 18.0232 151.194 18.0838 150.821 18.0838ZM150.821 17.4608C151.091 17.4608 151.341 17.4142 151.57 17.3208C151.803 17.2275 152.004 17.0968 152.172 16.9288C152.344 16.7562 152.477 16.5555 152.571 16.3268C152.669 16.0982 152.718 15.8485 152.718 15.5778C152.718 15.3072 152.669 15.0575 152.571 14.8288C152.477 14.6002 152.344 14.4018 152.172 14.2338C152.004 14.0612 151.803 13.9282 151.57 13.8348C151.341 13.7415 151.091 13.6948 150.821 13.6948C150.545 13.6948 150.291 13.7415 150.058 13.8348C149.829 13.9282 149.628 14.0612 149.456 14.2338C149.283 14.4018 149.148 14.6002 149.05 14.8288C148.956 15.0575 148.91 15.3072 148.91 15.5778C148.91 15.8485 148.956 16.0982 149.05 16.3268C149.148 16.5555 149.283 16.7562 149.456 16.9288C149.628 17.0968 149.829 17.2275 150.058 17.3208C150.291 17.4142 150.545 17.4608 150.821 17.4608ZM159.043 13.1278H159.743V18.0278H159.043V13.1278ZM156.229 18.0278H155.529V13.1278H156.229V18.0278ZM159.106 15.8438H156.159V15.2348H159.106V15.8438ZM164.4 14.8358C164.979 14.8358 165.425 14.9665 165.737 15.2278C166.05 15.4845 166.206 15.8695 166.206 16.3828C166.206 16.9242 166.036 17.3348 165.695 17.6148C165.359 17.8902 164.886 18.0278 164.274 18.0278H162.251V13.1278H162.944V14.8358H164.4ZM164.246 17.4748C164.652 17.4748 164.963 17.3838 165.177 17.2018C165.397 17.0198 165.506 16.7515 165.506 16.3968C165.506 16.0515 165.399 15.7972 165.184 15.6338C164.97 15.4705 164.657 15.3888 164.246 15.3888H162.944V17.4748H164.246ZM166.983 18.0278V13.1278H167.676V18.0278H166.983ZM175.234 18.0838C174.861 18.0838 174.516 18.0232 174.198 17.9018C173.886 17.7758 173.613 17.6008 173.379 17.3768C173.151 17.1482 172.971 16.8822 172.84 16.5788C172.71 16.2755 172.644 15.9418 172.644 15.5778C172.644 15.2138 172.71 14.8802 172.84 14.5768C172.971 14.2735 173.153 14.0098 173.386 13.7858C173.62 13.5572 173.893 13.3822 174.205 13.2608C174.523 13.1348 174.868 13.0718 175.241 13.0718C175.619 13.0718 175.967 13.1372 176.284 13.2678C176.606 13.3938 176.879 13.5828 177.103 13.8348L176.648 14.2758C176.462 14.0798 176.252 13.9352 176.018 13.8418C175.785 13.7438 175.535 13.6948 175.269 13.6948C174.994 13.6948 174.737 13.7415 174.499 13.8348C174.266 13.9282 174.063 14.0588 173.89 14.2268C173.718 14.3948 173.582 14.5955 173.484 14.8288C173.391 15.0575 173.344 15.3072 173.344 15.5778C173.344 15.8485 173.391 16.1005 173.484 16.3338C173.582 16.5625 173.718 16.7608 173.89 16.9288C174.063 17.0968 174.266 17.2275 174.499 17.3208C174.737 17.4142 174.994 17.4608 175.269 17.4608C175.535 17.4608 175.785 17.4142 176.018 17.3208C176.252 17.2228 176.462 17.0735 176.648 16.8728L177.103 17.3138C176.879 17.5658 176.606 17.7572 176.284 17.8878C175.967 18.0185 175.617 18.0838 175.234 18.0838ZM179.048 18.0278V13.1278H179.741V16.9078L182.639 13.1278H183.283V18.0278H182.597V14.2548L179.692 18.0278H179.048ZM187.982 18.0838C187.608 18.0838 187.263 18.0232 186.946 17.9018C186.633 17.7758 186.36 17.6008 186.127 17.3768C185.898 17.1482 185.718 16.8822 185.588 16.5788C185.457 16.2755 185.392 15.9418 185.392 15.5778C185.392 15.2138 185.457 14.8802 185.588 14.5768C185.718 14.2735 185.9 14.0098 186.134 13.7858C186.367 13.5572 186.64 13.3822 186.953 13.2608C187.27 13.1348 187.615 13.0718 187.989 13.0718C188.367 13.0718 188.714 13.1372 189.032 13.2678C189.354 13.3938 189.627 13.5828 189.851 13.8348L189.396 14.2758C189.209 14.0798 188.999 13.9352 188.766 13.8418C188.532 13.7438 188.283 13.6948 188.017 13.6948C187.741 13.6948 187.485 13.7415 187.247 13.8348C187.013 13.9282 186.81 14.0588 186.638 14.2268C186.465 14.3948 186.33 14.5955 186.232 14.8288C186.138 15.0575 186.092 15.3072 186.092 15.5778C186.092 15.8485 186.138 16.1005 186.232 16.3338C186.33 16.5625 186.465 16.7608 186.638 16.9288C186.81 17.0968 187.013 17.2275 187.247 17.3208C187.485 17.4142 187.741 17.4608 188.017 17.4608C188.283 17.4608 188.532 17.4142 188.766 17.3208C188.999 17.2228 189.209 17.0735 189.396 16.8728L189.851 17.3138C189.627 17.5658 189.354 17.7572 189.032 17.8878C188.714 18.0185 188.364 18.0838 187.982 18.0838ZM192.741 18.0278V13.5548L192.916 13.7368H191.068V13.1278H195.107V13.7368H193.259L193.427 13.5548V18.0278H192.741ZM197.575 15.2418H200.095V15.8368H197.575V15.2418ZM197.638 17.4188H200.494V18.0278H196.938V13.1278H200.396V13.7368H197.638V17.4188ZM202.573 18.0278V13.1278H203.147L205.345 16.8308H205.037L207.207 13.1278H207.781L207.788 18.0278H207.116L207.109 14.1848H207.27L205.338 17.4328H205.016L203.07 14.1848H203.245V18.0278H202.573Z" fill="white"/>
<defs>
<clipPath id="clip0_19_75">
<rect width="33.4137" height="24.0555" fill="white"/>
</clipPath>
</defs>
</svg>
