<svg xmlns="http://www.w3.org/2000/svg" width="12" height="12" viewBox="0 0 12 12" fill="none">
    <path
        d="M10.745 6.00006C10.905 5.49006 11 4.94006 11 4.34506C11 2.80006 9.755 1.55005 8.22 1.55005C7.31 1.55005 6.505 1.99007 6 2.67007C5.495 1.99007 4.685 1.55005 3.78 1.55005C2.245 1.55005 1 2.80006 1 4.34506C1 7.84506 4.24 9.91006 5.69 10.4101C5.775 10.4401 5.885 10.455 6 10.455"
        stroke="#6B7785" stroke-width="1.5" stroke-linecap="round" stroke-linejoin="round" />
    <path
        d="M8.87002 10.5001C9.75367 10.5001 10.47 9.78371 10.47 8.90005C10.47 8.0164 9.75367 7.30005 8.87002 7.30005C7.98636 7.30005 7.27002 8.0164 7.27002 8.90005C7.27002 9.78371 7.98636 10.5001 8.87002 10.5001Z"
        stroke="#6B7785" stroke-width="1.5" stroke-linecap="round" stroke-linejoin="round" />
    <path d="M10.77 10.8L10.27 10.3" stroke="#6B7785" stroke-width="1.5" stroke-linecap="round"
        stroke-linejoin="round" />
</svg>