<svg xmlns="http://www.w3.org/2000/svg" width="12" height="12" viewBox="0 0 12 12" fill="none">
    <path
        d="M7.79498 6.13C9.21159 6.13 10.36 4.98161 10.36 3.565C10.36 2.14839 9.21159 1 7.79498 1C6.37837 1 5.22998 2.14839 5.22998 3.565C5.22998 4.98161 6.37837 6.13 7.79498 6.13Z"
        stroke="#6B7785" stroke-width="1.5" stroke-miterlimit="10" />
    <path
        d="M3.18013 9.71989C4.03065 9.71989 4.72014 9.03041 4.72014 8.17989C4.72014 7.32937 4.03065 6.63989 3.18013 6.63989C2.32961 6.63989 1.64014 7.32937 1.64014 8.17989C1.64014 9.03041 2.32961 9.71989 3.18013 9.71989Z"
        stroke="#6B7785" stroke-width="1.5" stroke-miterlimit="10" />
    <path
        d="M8.30978 10.9999C9.01671 10.9999 9.58978 10.4269 9.58978 9.71994C9.58978 9.01302 9.01671 8.43994 8.30978 8.43994C7.60286 8.43994 7.02979 9.01302 7.02979 9.71994C7.02979 10.4269 7.60286 10.9999 8.30978 10.9999Z"
        stroke="#6B7785" stroke-width="1.5" stroke-miterlimit="10" />
</svg>