<svg xmlns="http://www.w3.org/2000/svg" width="12" height="12" viewBox="0 0 12 12" fill="none">
    <path d="M3.75 4.17017H7.45C7.895 4.17017 8.25 4.53015 8.25 4.97015V5.85516" stroke="#6B7785"
        stroke-width="1.5" stroke-miterlimit="10" stroke-linecap="round" stroke-linejoin="round" />
    <path d="M4.595 3.33008L3.75 4.1701L4.595 5.01511" stroke="#6B7785" stroke-width="1.5"
        stroke-miterlimit="10" stroke-linecap="round" stroke-linejoin="round" />
    <path d="M8.25 7.83002H4.55C4.105 7.83002 3.75 7.47003 3.75 7.03003V6.14502" stroke="#6B7785"
        stroke-width="1.5" stroke-miterlimit="10" stroke-linecap="round" stroke-linejoin="round" />
    <path d="M7.40479 8.67014L8.24979 7.83011L7.40479 6.98511" stroke="#6B7785" stroke-width="1.5"
        stroke-miterlimit="10" stroke-linecap="round" stroke-linejoin="round" />
    <path
        d="M6 11C8.76142 11 11 8.76142 11 6C11 3.23858 8.76142 1 6 1C3.23858 1 1 3.23858 1 6C1 8.76142 3.23858 11 6 11Z"
        stroke="#6B7785" stroke-width="1.5" stroke-miterlimit="10" stroke-linecap="round"
        stroke-linejoin="round" />
</svg>