<svg xmlns="http://www.w3.org/2000/svg" width="12" height="12" viewBox="0 0 12 12" fill="none">
    <path
        d="M4.48486 11H7.48486C9.98486 11 10.9849 10 10.9849 7.5V4.5C10.9849 2 9.98486 1 7.48486 1H4.48486C1.98486 1 0.984863 2 0.984863 4.5V7.5C0.984863 10 1.98486 11 4.48486 11Z"
        stroke="#6B7785" stroke-width="1.5" stroke-linecap="round" stroke-linejoin="round" />
    <path
        d="M0.984863 6.35005L3.98486 6.34005C4.35986 6.34005 4.77986 6.62505 4.91986 6.97505L5.48986 8.41505C5.61986 8.74005 5.82486 8.74005 5.95486 8.41505L7.09986 5.51005C7.20986 5.23005 7.41486 5.22005 7.55486 5.48505L8.07486 6.47005C8.22986 6.76505 8.62986 7.00505 8.95986 7.00505H10.9899"
        stroke="#6B7785" stroke-width="1.5" stroke-linecap="round" stroke-linejoin="round" />
</svg>