<svg xmlns="http://www.w3.org/2000/svg" width="12" height="12" viewBox="0 0 12 12" fill="none">
    <path
        d="M4.0799 11C1.9899 11 1.5699 9.735 2.2499 8.195L4.3749 3.37H4.2249C3.8999 3.37 3.5999 3.24 3.3849 3.025C3.1649 2.81 3.0349 2.51 3.0349 2.185C3.0349 1.535 3.5649 1 4.2199 1H7.7749C8.1049 1 8.3999 1.135 8.6149 1.35C8.8949 1.63 9.0349 2.04 8.9299 2.475C8.7949 3.015 8.2749 3.37 7.7199 3.37H7.6399L9.7499 8.2C10.4249 9.74 9.9849 11 7.9149 11H4.0799Z"
        stroke="#6B7785" stroke-width="1.5" stroke-linecap="round" stroke-linejoin="round" />
    <path
        d="M2.97021 6.55993C2.97021 6.55993 4.50021 6.49993 6.00021 6.99993C7.50021 7.49993 8.91521 6.55493 8.91521 6.55493"
        stroke="#6B7785" stroke-width="1.5" stroke-linecap="round" stroke-linejoin="round" />
</svg>