<svg xmlns="http://www.w3.org/2000/svg" width="12" height="12" viewBox="0 0 12 12" fill="none">
    <path
        d="M11.0002 8.59995C11.0002 9.04995 10.8752 9.47493 10.6502 9.83493C10.2352 10.5299 9.47519 10.9999 8.60019 10.9999C7.72519 10.9999 6.96019 10.5299 6.55019 9.83493C6.33019 9.47493 6.2002 9.04995 6.2002 8.59995C6.2002 7.27495 7.27519 6.19995 8.60019 6.19995C9.92519 6.19995 11.0002 7.27495 11.0002 8.59995Z"
        stroke="#6B7785" stroke-width="1.5" stroke-miterlimit="10" stroke-linecap="round"
        stroke-linejoin="round" />
    <path d="M7.66504 8.60001L8.25504 9.19L9.53504 8.01001" stroke="#6B7785" stroke-width="1.5"
        stroke-linecap="round" stroke-linejoin="round" />
    <path
        d="M11 4.34506C11 5.33006 10.745 6.20005 10.345 6.95505C9.905 6.49005 9.285 6.20007 8.6 6.20007C7.275 6.20007 6.2 7.27507 6.2 8.60007C6.2 9.21507 6.435 9.77507 6.815 10.2001C6.63 10.2851 6.46 10.3551 6.31 10.4051C6.14 10.4651 5.86 10.4651 5.69 10.4051C4.24 9.91006 1 7.84506 1 4.34506C1 2.80006 2.245 1.55005 3.78 1.55005C4.685 1.55005 5.495 1.99007 6 2.66507C6.505 1.99007 7.315 1.55005 8.22 1.55005C9.755 1.55005 11 2.80006 11 4.34506Z"
        stroke="#6B7785" stroke-width="1.5" stroke-linecap="round" stroke-linejoin="round" />
</svg>