<svg xmlns="http://www.w3.org/2000/svg" width="16" height="16" viewBox="0 0 16 16" fill="none">
    <path
        d="M7.99967 1.3335C4.32634 1.3335 1.33301 4.32683 1.33301 8.00016C1.33301 11.6735 4.32634 14.6668 7.99967 14.6668C11.673 14.6668 14.6663 11.6735 14.6663 8.00016C14.6663 4.32683 11.673 1.3335 7.99967 1.3335ZM11.1863 6.46683L7.40634 10.2468C7.31301 10.3402 7.18634 10.3935 7.05301 10.3935C6.91967 10.3935 6.79301 10.3402 6.69967 10.2468L4.81301 8.36016C4.61967 8.16683 4.61967 7.84683 4.81301 7.6535C5.00634 7.46016 5.32634 7.46016 5.51967 7.6535L7.05301 9.18683L10.4797 5.76016C10.673 5.56683 10.993 5.56683 11.1863 5.76016C11.3797 5.9535 11.3797 6.26683 11.1863 6.46683Z"
        fill="#2D8CFF"
    />
</svg>