<svg xmlns="http://www.w3.org/2000/svg" width="16" height="16" viewBox="0 0 16 16" fill="none">
    <path
        d="M2.21999 5.94023C2.21999 5.81356 2.26665 5.68689 2.36665 5.58689C2.55999 5.39356 2.87999 5.39356 3.07332 5.58689L7.41999 9.93356C7.73999 10.2536 8.25999 10.2536 8.57999 9.93356L12.9267 5.58689C13.12 5.39356 13.44 5.39356 13.6333 5.58689C13.8267 5.78023 13.8267 6.10023 13.6333 6.29356L9.28665 10.6402C8.94665 10.9802 8.48665 11.1736 7.99999 11.1736C7.51332 11.1736 7.05332 10.9869 6.71332 10.6402L2.36665 6.29356C2.27332 6.19356 2.21999 6.06689 2.21999 5.94023Z"
        fill="#6B7785"
    />
</svg>