<svg xmlns="http://www.w3.org/2000/svg" width="16" height="16" viewBox="0 0 16 16" fill="none">
    <path
        d="M10.7935 1.33334H5.20683C2.78016 1.33334 1.3335 2.78 1.3335 5.20667V10.7867C1.3335 13.22 2.78016 14.6667 5.20683 14.6667H10.7868C13.2135 14.6667 14.6602 13.22 14.6602 10.7933V5.20667C14.6668 2.78 13.2202 1.33334 10.7935 1.33334ZM10.6668 8.5H5.3335C5.06016 8.5 4.8335 8.27334 4.8335 8C4.8335 7.72667 5.06016 7.5 5.3335 7.5H10.6668C10.9402 7.5 11.1668 7.72667 11.1668 8C11.1668 8.27334 10.9402 8.5 10.6668 8.5Z"
        fill="#2D8CFF" />
</svg>